<svg id="kity_svg_6" xmlns="http://www.w3.org/2000/svg" xmlns:xlink="http://www.w3.org/1999/xlink" version="1.1" width="1240" height="1946" style="background: rgb(251, 251, 251); visibility: visible;" viewBox="0 0 1240 1946"><defs id="kity_defs_7"><linearGradient id="kity_linearGradient_17" x1="0" y1="0" x2="0" y2="1"><stop id="kity_stop_18" offset="0" stop-color="rgb(255, 255, 255)"></stop><stop id="kity_stop_19" offset="1" stop-color="rgb(204, 204, 204)"></stop></linearGradient><marker id="kity_marker_2" orient="auto" refX="6" refY="0" viewBox="-7 -7 14 14" markerWidth="7" markerHeight="7" markerUnits="userSpaceOnUse"><path id="kity_path_3" fill="rgb(115, 161, 191)" stroke="none" d="M6,0A6,6,0,1,1,-6,0A6,6,0,1,1,6,0"></path></marker></defs><g id="kity_g_8"><g id="minder1" text-rendering="optimize-speed"><g id="minder_connect_group1"><path id="kity_path_31" fill="none" stroke="rgb(115, 161, 191)" stroke-width="1" d="M546.5,893.5A210,732,0,0,1,756.5,161.5"></path><path id="kity_path_33" fill="none" stroke="rgb(115, 161, 191)" stroke-width="1" d="M854.5,161.5C875.5,161.5,875.5,45.5,896.5,45.5L974.5,45.5"></path><path id="kity_path_35" fill="none" stroke="rgb(115, 161, 191)" stroke-width="1" d="M854.5,161.5C877,161.5,877,116.5,899.5,116.5L1037.5,116.5"></path><path id="kity_path_37" fill="none" stroke="rgb(115, 161, 191)" stroke-width="1" d="M854.5,161.5C881,161.5,881,192.5,907.5,192.5L985.5,192.5"></path><path id="kity_path_39" fill="none" stroke="rgb(115, 161, 191)" stroke-width="1" d="M546.5,893.5A214,482,0,0,1,760.5,411.5"></path><path id="kity_path_41" fill="none" stroke="rgb(115, 161, 191)" stroke-width="1" d="M858.5,411.5C873.5,411.5,873.5,308.5,888.5,308.5L1019.5,308.5"></path><path id="kity_path_43" fill="none" stroke="rgb(115, 161, 191)" stroke-width="1" d="M1019.5,308.5C1034.5,308.5,1034.5,282.5,1049.5,282.5L1103.5,282.5"></path><path id="kity_path_45" fill="none" stroke="rgb(115, 161, 191)" stroke-width="1" d="M1019.5,308.5C1034.5,308.5,1034.5,334.5,1049.5,334.5L1103.5,334.5"></path><path id="kity_path_47" fill="none" stroke="rgb(115, 161, 191)" stroke-width="1" d="M858.5,411.5C873,411.5,873,409.5,887.5,409.5L941.5,409.5"></path><path id="kity_path_49" fill="none" stroke="rgb(115, 161, 191)" stroke-width="1" d="M941.5,409.5C956.5,409.5,956.5,383.5,971.5,383.5L1025.5,383.5"></path><path id="kity_path_51" fill="none" stroke="rgb(115, 161, 191)" stroke-width="1" d="M941.5,409.5C956.5,409.5,956.5,435.5,971.5,435.5L1025.5,435.5"></path><path id="kity_path_53" fill="none" stroke="rgb(115, 161, 191)" stroke-width="1" d="M858.5,411.5C873.5,411.5,873.5,490.5,888.5,490.5L942.5,490.5"></path><path id="kity_path_55" fill="none" stroke="rgb(115, 161, 191)" stroke-width="1" d="M942.5,490.5C957.5,490.5,957.5,490.5,972.5,490.5L1050.5,490.5"></path><path id="kity_path_57" fill="none" stroke="rgb(115, 161, 191)" stroke-width="1" d="M858.5,411.5C873.5,411.5,873.5,542.5,888.5,542.5L942.5,542.5"></path><path id="kity_path_59" fill="none" stroke="rgb(115, 161, 191)" stroke-width="1" d="M942.5,542.5C957.5,542.5,957.5,542.5,972.5,542.5L1050.5,542.5"></path><path id="kity_path_61" fill="none" stroke="rgb(115, 161, 191)" stroke-width="1" d="M546.5,893.5A189,247,0,0,0,735.5,1140.5"></path><path id="kity_path_63" fill="none" stroke="rgb(115, 161, 191)" stroke-width="1" d="M861.5,1140.5C876.5,1140.5,876.5,998.5,891.5,998.5L981.5,998.5"></path><path id="kity_path_65" fill="none" stroke="rgb(115, 161, 191)" stroke-width="1" d="M861.5,1140.5C876.5,1140.5,876.5,1050.5,891.5,1050.5L993.5,1050.5"></path><path id="kity_path_67" fill="none" stroke="rgb(115, 161, 191)" stroke-width="1" d="M861.5,1140.5C876.5,1140.5,876.5,1180.5,891.5,1180.5L1017.5,1180.5"></path><path id="kity_path_69" fill="none" stroke="rgb(115, 161, 191)" stroke-width="1" d="M1017.5,1180.5C1032.5,1180.5,1032.5,1102.5,1047.5,1102.5L1125.5,1102.5"></path><path id="kity_path_71" fill="none" stroke="rgb(115, 161, 191)" stroke-width="1" d="M1017.5,1180.5C1032.5,1180.5,1032.5,1154.5,1047.5,1154.5L1101.5,1154.5"></path><path id="kity_path_73" fill="none" stroke="rgb(115, 161, 191)" stroke-width="1" d="M1017.5,1180.5C1032.5,1180.5,1032.5,1206.5,1047.5,1206.5L1101.5,1206.5"></path><path id="kity_path_75" fill="none" stroke="rgb(115, 161, 191)" stroke-width="1" d="M1017.5,1180.5C1034,1180.5,1034,1259.5,1050.5,1259.5L1104.5,1259.5"></path><path id="kity_path_77" fill="none" stroke="rgb(115, 161, 191)" stroke-width="1" d="M861.5,1140.5C876.5,1140.5,876.5,1310.5,891.5,1310.5L969.5,1310.5"></path><path id="kity_path_79" fill="none" stroke="rgb(115, 161, 191)" stroke-width="1" d="M546.5,893.5A239,117,0,0,1,785.5,776.5"></path><path id="kity_path_81" fill="none" stroke="rgb(115, 161, 191)" stroke-width="1" d="M867.5,776.5C896,776.5,896,670.5,924.5,670.5L990.5,670.5"></path><path id="kity_path_83" fill="none" stroke="rgb(115, 161, 191)" stroke-width="1" d="M867.5,776.5C897.5,776.5,897.5,738.5,927.5,738.5L981.5,738.5"></path><path id="kity_path_85" fill="none" stroke="rgb(115, 161, 191)" stroke-width="1" d="M867.5,776.5C897,776.5,897,822.5,926.5,822.5L992.5,822.5"></path><path id="kity_path_87" fill="none" stroke="rgb(115, 161, 191)" stroke-width="1" d="M867.5,776.5C893,776.5,893,904.5,918.5,904.5L996.5,904.5"></path><path id="kity_path_89" fill="none" stroke="rgb(115, 161, 191)" stroke-width="1" d="M546.5,893.5A284,707,0,0,0,830.5,1600.5"></path><path id="kity_path_91" fill="none" stroke="rgb(115, 161, 191)" stroke-width="1" d="M956.5,1600.5C971.5,1600.5,971.5,1302.5,986.5,1302.5L1076.5,1302.5"></path><path id="kity_path_93" fill="none" stroke="rgb(115, 161, 191)" stroke-width="1" d="M956.5,1600.5C971.5,1600.5,971.5,1354.5,986.5,1354.5L1088.5,1354.5"></path><path id="kity_path_95" fill="none" stroke="rgb(115, 161, 191)" stroke-width="1" d="M956.5,1600.5C971.5,1600.5,971.5,1406.5,986.5,1406.5L1040.5,1406.5"></path><path id="kity_path_97" fill="none" stroke="rgb(115, 161, 191)" stroke-width="1" d="M956.5,1600.5C971.5,1600.5,971.5,1484.5,986.5,1484.5L1064.5,1484.5"></path><path id="kity_path_99" fill="none" stroke="rgb(115, 161, 191)" stroke-width="1" d="M1064.5,1484.5C1079.5,1484.5,1079.5,1458.5,1094.5,1458.5L1148.5,1458.5"></path><path id="kity_path_101" fill="none" stroke="rgb(115, 161, 191)" stroke-width="1" d="M1064.5,1484.5C1079.5,1484.5,1079.5,1510.5,1094.5,1510.5L1148.5,1510.5"></path><path id="kity_path_103" fill="none" stroke="rgb(115, 161, 191)" stroke-width="1" d="M956.5,1600.5C971.5,1600.5,971.5,1588.5,986.5,1588.5L1040.5,1588.5"></path><path id="kity_path_105" fill="none" stroke="rgb(115, 161, 191)" stroke-width="1" d="M1040.5,1588.5C1055.5,1588.5,1055.5,1562.5,1070.5,1562.5L1124.5,1562.5"></path><path id="kity_path_107" fill="none" stroke="rgb(115, 161, 191)" stroke-width="1" d="M1040.5,1588.5C1055.5,1588.5,1055.5,1614.5,1070.5,1614.5L1124.5,1614.5"></path><path id="kity_path_109" fill="none" stroke="rgb(115, 161, 191)" stroke-width="1" d="M956.5,1600.5C971.5,1600.5,971.5,1718.5,986.5,1718.5L1040.5,1718.5"></path><path id="kity_path_111" fill="none" stroke="rgb(115, 161, 191)" stroke-width="1" d="M1040.5,1718.5C1055.5,1718.5,1055.5,1666.5,1070.5,1666.5L1148.5,1666.5"></path><path id="kity_path_113" fill="none" stroke="rgb(115, 161, 191)" stroke-width="1" d="M1040.5,1718.5C1055.5,1718.5,1055.5,1718.5,1070.5,1718.5L1124.5,1718.5"></path><path id="kity_path_115" fill="none" stroke="rgb(115, 161, 191)" stroke-width="1" d="M1040.5,1718.5C1055.5,1718.5,1055.5,1770.5,1070.5,1770.5L1148.5,1770.5"></path><path id="kity_path_117" fill="none" stroke="rgb(115, 161, 191)" stroke-width="1" d="M956.5,1600.5C971.5,1600.5,971.5,1848.5,986.5,1848.5L1112.5,1848.5"></path><path id="kity_path_119" fill="none" stroke="rgb(115, 161, 191)" stroke-width="1" d="M1112.5,1848.5C1127.5,1848.5,1127.5,1822.5,1142.5,1822.5L1220.5,1822.5"></path><path id="kity_path_121" fill="none" stroke="rgb(115, 161, 191)" stroke-width="1" d="M1112.5,1848.5C1127.5,1848.5,1127.5,1874.5,1142.5,1874.5L1220.5,1874.5"></path><path id="kity_path_123" fill="none" stroke="rgb(115, 161, 191)" stroke-width="1" d="M956.5,1600.5C971.5,1600.5,971.5,1926.5,986.5,1926.5L1040.5,1926.5"></path><path id="kity_path_125" fill="none" stroke="rgb(115, 161, 191)" stroke-width="1" d="M546.5,893.5A158,188,0,0,0,388.5,705.5"></path><path id="kity_path_127" fill="none" stroke="rgb(115, 161, 191)" stroke-width="1" d="M248.5,705.5C234.5,705.5,234.5,481.5,220.5,481.5L142.5,481.5"></path><path id="kity_path_129" fill="none" stroke="rgb(115, 161, 191)" stroke-width="1" d="M142.5,481.5C127.5,481.5,127.5,429.5,112.5,429.5L58.5,429.5"></path><path id="kity_path_131" fill="none" stroke="rgb(115, 161, 191)" stroke-width="1" d="M142.5,481.5C127.5,481.5,127.5,481.5,112.5,481.5L46.5,481.5"></path><path id="kity_path_133" fill="none" stroke="rgb(115, 161, 191)" stroke-width="1" d="M142.5,481.5C127.5,481.5,127.5,533.5,112.5,533.5L58.5,533.5"></path><path id="kity_path_135" fill="none" stroke="rgb(115, 161, 191)" stroke-width="1" d="M248.5,705.5C234,705.5,234,603.5,219.5,603.5L141.5,603.5"></path><path id="kity_path_137" fill="none" stroke="rgb(115, 161, 191)" stroke-width="1" d="M248.5,705.5C233.5,705.5,233.5,745.5,218.5,745.5L140.5,745.5"></path><path id="kity_path_139" fill="none" stroke="rgb(115, 161, 191)" stroke-width="1" d="M140.5,745.5C125.5,745.5,125.5,693.5,110.5,693.5L56.5,693.5"></path><path id="kity_path_141" fill="none" stroke="rgb(115, 161, 191)" stroke-width="1" d="M140.5,745.5C125.5,745.5,125.5,745.5,110.5,745.5L56.5,745.5"></path><path id="kity_path_143" fill="none" stroke="rgb(115, 161, 191)" stroke-width="1" d="M140.5,745.5C125.5,745.5,125.5,797.5,110.5,797.5L20.5,797.5"></path><path id="kity_path_145" fill="none" stroke="rgb(115, 161, 191)" stroke-width="1" d="M248.5,705.5C233,705.5,233,844.5,217.5,844.5L139.5,844.5"></path><path id="kity_path_147" fill="none" stroke="rgb(115, 161, 191)" stroke-width="1" d="M248.5,705.5C233.5,705.5,233.5,925.5,218.5,925.5L140.5,925.5"></path><path id="kity_path_149" fill="none" stroke="rgb(115, 161, 191)" stroke-width="1" d="M546.5,893.5A145,170,0,0,1,401.5,1063.5"></path><path id="kity_path_151" fill="none" stroke="rgb(115, 161, 191)" stroke-width="1" d="M247.5,1063.5C232.5,1063.5,232.5,1025.5,217.5,1025.5L163.5,1025.5"></path><path id="kity_path_153" fill="none" stroke="rgb(115, 161, 191)" stroke-width="1" d="M247.5,1063.5C232.5,1063.5,232.5,1077.5,217.5,1077.5L57.5,1077.5"></path><path id="kity_path_155" fill="none" stroke="rgb(115, 161, 191)" stroke-width="1" d="M247.5,1063.5C232.5,1063.5,232.5,1129.5,217.5,1129.5L163.5,1129.5"></path><path id="kity_path_157" fill="none" stroke="rgb(115, 161, 191)" stroke-width="1" d="M546.5,893.5A47,293,0,0,1,499.5,1186.5"></path><path id="kity_path_159" fill="none" stroke="rgb(115, 161, 191)" stroke-width="1" d="M546.5,893.5A225,413,0,0,1,321.5,1306.5"></path></g><g id="minder_node1"><path id="node_outline1" fill="rgb(115, 161, 191)" stroke="rgb(57, 80, 96)" d="M462.5,873.5h168a5,5,0,0,1,5,5v30a5,5,0,0,1,-5,5h-168a5,5,0,0,1,-5,-5v-30a5,5,0,0,1,5,-5z" stroke-width="3"></path><g id="node_text1" fill="white"><text id="kity_text_22" text-rendering="inherit" font-size="16" dy=".8em" y="885.5" x="481.5">一分App功能模型</text></g></g><g id="kity_g_12"><path id="kity_path_13" fill="none" stroke="none" d="M481.5,893.5h0v0h0z"></path></g><g id="kity_g_14"><path id="kity_path_15" fill="none" stroke="none" d="M481.5,893.5h0v0h0z"></path><path id="kity_path_16" fill="none" stroke="none"></path></g><g id="minder_node2"><g id="node_expander4" style="cursor: pointer;"><path id="kity_path_365" fill="white" stroke="gray" d="M757.5,161.5A6,6,0,1,1,745.5,161.5A6,6,0,1,1,757.5,161.5"></path><path id="kity_path_366" fill="none" stroke="gray" d="M747,161.5L756,161.5"></path></g><path id="node_outline5" fill="rgb(238, 243, 246)" stroke="rgb(115, 161, 191)" d="M761.5,148.5h90a3,3,0,0,1,3,3v20a3,3,0,0,1,-3,3h-90a3,3,0,0,1,-3,-3v-20a3,3,0,0,1,3,-3z" stroke-width="1"></path><g id="node_text5" fill="black"><text id="kity_text_167" text-rendering="inherit" font-size="14" dy=".8em" y="154.5" x="778.5">日志模块</text></g></g><g id="minder_node3"><g id="node_expander1" display="none" style="cursor: pointer;"><path id="kity_path_356" fill="white" stroke="gray" d="M922.5,31.5A6,6,0,1,1,910.5,31.5A6,6,0,1,1,922.5,31.5"></path><path id="kity_path_357" fill="none" stroke="gray"></path></g><path id="node_outline2" fill="none" stroke="none" d="M911.5,20.5h58a5,5,0,0,1,5,5v12a5,5,0,0,1,-5,5h-58a5,5,0,0,1,-5,-5v-12a5,5,0,0,1,5,-5z"></path><g id="node_text2" fill="black"><text id="kity_text_161" text-rendering="inherit" font-size="12" dy=".8em" y="25.5" x="916.5">日志分级</text></g></g><g id="minder_node4"><g id="node_expander2" display="none" style="cursor: pointer;"><path id="kity_path_359" fill="white" stroke="gray" d="M925.5,102.5A6,6,0,1,1,913.5,102.5A6,6,0,1,1,925.5,102.5"></path><path id="kity_path_360" fill="none" stroke="gray"></path></g><path id="node_outline3" fill="none" stroke="none" d="M914.5,91.5h118a5,5,0,0,1,5,5v12a5,5,0,0,1,-5,5h-118a5,5,0,0,1,-5,-5v-12a5,5,0,0,1,5,-5z"></path><g id="node_text3" fill="black"><text id="kity_text_163" text-rendering="inherit" font-size="12" dy=".8em" y="96.5" x="919.5">日志本地文件化存储</text></g></g><g id="minder_node5"><g id="node_expander3" display="none" style="cursor: pointer;"><path id="kity_path_362" fill="white" stroke="gray" d="M933.5,178.5A6,6,0,1,1,921.5,178.5A6,6,0,1,1,933.5,178.5"></path><path id="kity_path_363" fill="none" stroke="gray"></path></g><path id="node_outline4" fill="none" stroke="none" d="M922.5,167.5h58a5,5,0,0,1,5,5v12a5,5,0,0,1,-5,5h-58a5,5,0,0,1,-5,-5v-12a5,5,0,0,1,5,-5z"></path><g id="node_text4" fill="black"><text id="kity_text_165" text-rendering="inherit" font-size="12" dy=".8em" y="172.5" x="927.5">日志上报</text></g></g><g id="minder_node6"><g id="node_expander15" style="cursor: pointer;"><path id="kity_path_398" fill="white" stroke="gray" d="M761.5,411.5A6,6,0,1,1,749.5,411.5A6,6,0,1,1,761.5,411.5"></path><path id="kity_path_399" fill="none" stroke="gray" d="M751,411.5L760,411.5"></path></g><path id="node_outline16" fill="rgb(238, 243, 246)" stroke="rgb(115, 161, 191)" d="M765.5,398.5h90a3,3,0,0,1,3,3v20a3,3,0,0,1,-3,3h-90a3,3,0,0,1,-3,-3v-20a3,3,0,0,1,3,-3z" stroke-width="1"></path><g id="node_text16" fill="black"><text id="kity_text_189" text-rendering="inherit" font-size="14" dy=".8em" y="404.5" x="782.5">分享模块</text></g></g><g id="minder_node7"><g id="node_expander7" style="cursor: pointer;"><path id="kity_path_374" fill="white" stroke="gray" d="M898.5,294.5A6,6,0,1,1,886.5,294.5A6,6,0,1,1,898.5,294.5"></path><path id="kity_path_375" fill="none" stroke="gray" d="M888,294.5L897,294.5"></path></g><path id="node_outline8" fill="none" stroke="none" d="M903.5,283.5h111a5,5,0,0,1,5,5v12a5,5,0,0,1,-5,5h-111a5,5,0,0,1,-5,-5v-12a5,5,0,0,1,5,-5z"></path><g id="node_text8" fill="black"><text id="kity_text_173" text-rendering="inherit" font-size="12" dy=".8em" y="288.5" x="908.5">社交/视频帐号管理</text></g></g><g id="minder_node8"><g id="node_expander5" display="none" style="cursor: pointer;"><path id="kity_path_368" fill="white" stroke="gray" d="M1075.5,268.5A6,6,0,1,1,1063.5,268.5A6,6,0,1,1,1075.5,268.5"></path><path id="kity_path_369" fill="none" stroke="gray"></path></g><path id="node_outline6" fill="none" stroke="none" d="M1064.5,257.5h34a5,5,0,0,1,5,5v12a5,5,0,0,1,-5,5h-34a5,5,0,0,1,-5,-5v-12a5,5,0,0,1,5,-5z"></path><g id="node_text6" fill="black"><text id="kity_text_169" text-rendering="inherit" font-size="12" dy=".8em" y="262.5" x="1069.5">绑定</text></g></g><g id="minder_node9"><g id="node_expander6" display="none" style="cursor: pointer;"><path id="kity_path_371" fill="white" stroke="gray" d="M1075.5,320.5A6,6,0,1,1,1063.5,320.5A6,6,0,1,1,1075.5,320.5"></path><path id="kity_path_372" fill="none" stroke="gray"></path></g><path id="node_outline7" fill="none" stroke="none" d="M1064.5,309.5h34a5,5,0,0,1,5,5v12a5,5,0,0,1,-5,5h-34a5,5,0,0,1,-5,-5v-12a5,5,0,0,1,5,-5z"></path><g id="node_text7" fill="black"><text id="kity_text_171" text-rendering="inherit" font-size="12" dy=".8em" y="314.5" x="1069.5">解绑</text></g></g><g id="minder_node10"><g id="node_expander10" style="cursor: pointer;"><path id="kity_path_383" fill="white" stroke="gray" d="M897.5,395.5A6,6,0,1,1,885.5,395.5A6,6,0,1,1,897.5,395.5"></path><path id="kity_path_384" fill="none" stroke="gray" d="M887,395.5L896,395.5"></path></g><path id="node_outline11" fill="none" stroke="none" d="M902.5,384.5h34a5,5,0,0,1,5,5v12a5,5,0,0,1,-5,5h-34a5,5,0,0,1,-5,-5v-12a5,5,0,0,1,5,-5z"></path><g id="node_text11" fill="black"><text id="kity_text_179" text-rendering="inherit" font-size="12" dy=".8em" y="389.5" x="907.5">上传</text></g></g><g id="minder_node11"><g id="node_expander8" display="none" style="cursor: pointer;"><path id="kity_path_377" fill="white" stroke="gray" d="M997.5,369.5A6,6,0,1,1,985.5,369.5A6,6,0,1,1,997.5,369.5"></path><path id="kity_path_378" fill="none" stroke="gray"></path></g><path id="node_outline9" fill="none" stroke="none" d="M986.5,358.5h34a5,5,0,0,1,5,5v12a5,5,0,0,1,-5,5h-34a5,5,0,0,1,-5,-5v-12a5,5,0,0,1,5,-5z"></path><g id="node_text9" fill="black"><text id="kity_text_175" text-rendering="inherit" font-size="12" dy=".8em" y="363.5" x="991.5">成片</text></g></g><g id="minder_node12"><g id="node_expander9" display="none" style="cursor: pointer;"><path id="kity_path_380" fill="white" stroke="gray" d="M997.5,421.5A6,6,0,1,1,985.5,421.5A6,6,0,1,1,997.5,421.5"></path><path id="kity_path_381" fill="none" stroke="gray"></path></g><path id="node_outline10" fill="none" stroke="none" d="M986.5,410.5h34a5,5,0,0,1,5,5v12a5,5,0,0,1,-5,5h-34a5,5,0,0,1,-5,-5v-12a5,5,0,0,1,5,-5z"></path><g id="node_text10" fill="black"><text id="kity_text_177" text-rendering="inherit" font-size="12" dy=".8em" y="415.5" x="991.5">预告</text></g></g><g id="minder_node13"><g id="node_expander12" style="cursor: pointer;"><path id="kity_path_389" fill="white" stroke="gray" d="M898.5,476.5A6,6,0,1,1,886.5,476.5A6,6,0,1,1,898.5,476.5"></path><path id="kity_path_390" fill="none" stroke="gray" d="M888,476.5L897,476.5"></path></g><path id="node_outline13" fill="none" stroke="none" d="M903.5,465.5h34a5,5,0,0,1,5,5v12a5,5,0,0,1,-5,5h-34a5,5,0,0,1,-5,-5v-12a5,5,0,0,1,5,-5z"></path><g id="node_text13" fill="black"><text id="kity_text_183" text-rendering="inherit" font-size="12" dy=".8em" y="470.5" x="908.5">分享</text></g></g><g id="minder_node14"><g id="node_expander11" display="none" style="cursor: pointer;"><path id="kity_path_386" fill="white" stroke="gray" d="M998.5,476.5A6,6,0,1,1,986.5,476.5A6,6,0,1,1,998.5,476.5"></path><path id="kity_path_387" fill="none" stroke="gray"></path></g><path id="node_outline12" fill="none" stroke="none" d="M987.5,465.5h58a5,5,0,0,1,5,5v12a5,5,0,0,1,-5,5h-58a5,5,0,0,1,-5,-5v-12a5,5,0,0,1,5,-5z"></path><g id="node_text12" fill="black"><text id="kity_text_181" text-rendering="inherit" font-size="12" dy=".8em" y="470.5" x="992.5">视频链接</text></g></g><g id="minder_node15"><g id="node_expander14" style="cursor: pointer;"><path id="kity_path_395" fill="white" stroke="gray" d="M898.5,528.5A6,6,0,1,1,886.5,528.5A6,6,0,1,1,898.5,528.5"></path><path id="kity_path_396" fill="none" stroke="gray" d="M888,528.5L897,528.5"></path></g><path id="node_outline15" fill="none" stroke="none" d="M903.5,517.5h34a5,5,0,0,1,5,5v12a5,5,0,0,1,-5,5h-34a5,5,0,0,1,-5,-5v-12a5,5,0,0,1,5,-5z"></path><g id="node_text15" fill="black"><text id="kity_text_187" text-rendering="inherit" font-size="12" dy=".8em" y="522.5" x="908.5">导出</text></g></g><g id="minder_node16"><g id="node_expander13" display="none" style="cursor: pointer;"><path id="kity_path_392" fill="white" stroke="gray" d="M998.5,528.5A6,6,0,1,1,986.5,528.5A6,6,0,1,1,998.5,528.5"></path><path id="kity_path_393" fill="none" stroke="gray"></path></g><path id="node_outline14" fill="none" stroke="none" d="M987.5,517.5h58a5,5,0,0,1,5,5v12a5,5,0,0,1,-5,5h-58a5,5,0,0,1,-5,-5v-12a5,5,0,0,1,5,-5z"></path><g id="node_text14" fill="black"><text id="kity_text_185" text-rendering="inherit" font-size="12" dy=".8em" y="522.5" x="992.5">系统相册</text></g></g><g id="minder_node17"><g id="node_expander24" style="cursor: pointer;"><path id="kity_path_425" fill="white" stroke="gray" d="M736.5,1140.5A6,6,0,1,1,724.5,1140.5A6,6,0,1,1,736.5,1140.5"></path><path id="kity_path_426" fill="none" stroke="gray" d="M726,1140.5L735,1140.5"></path></g><path id="node_outline25" fill="rgb(238, 243, 246)" stroke="rgb(115, 161, 191)" d="M740.5,1127.5h118a3,3,0,0,1,3,3v20a3,3,0,0,1,-3,3h-118a3,3,0,0,1,-3,-3v-20a3,3,0,0,1,3,-3z" stroke-width="1"></path><g id="node_text25" fill="black"><text id="kity_text_207" text-rendering="inherit" font-size="14" dy=".8em" y="1133.5" x="757.5">模板管理模块</text></g></g><g id="minder_node18"><g id="node_expander16" display="none" style="cursor: pointer;"><path id="kity_path_401" fill="white" stroke="gray" d="M917.5,984.5A6,6,0,1,1,905.5,984.5A6,6,0,1,1,917.5,984.5"></path><path id="kity_path_402" fill="none" stroke="gray"></path></g><path id="node_outline17" fill="none" stroke="none" d="M906.5,973.5h70a5,5,0,0,1,5,5v12a5,5,0,0,1,-5,5h-70a5,5,0,0,1,-5,-5v-12a5,5,0,0,1,5,-5z"></path><g id="node_text17" fill="black"><text id="kity_text_191" text-rendering="inherit" font-size="12" dy=".8em" y="978.5" x="911.5">本地化存储</text></g></g><g id="minder_node19"><g id="node_expander17" display="none" style="cursor: pointer;"><path id="kity_path_404" fill="white" stroke="gray" d="M917.5,1036.5A6,6,0,1,1,905.5,1036.5A6,6,0,1,1,917.5,1036.5"></path><path id="kity_path_405" fill="none" stroke="gray"></path></g><path id="node_outline18" fill="none" stroke="none" d="M906.5,1025.5h82a5,5,0,0,1,5,5v12a5,5,0,0,1,-5,5h-82a5,5,0,0,1,-5,-5v-12a5,5,0,0,1,5,-5z"></path><g id="node_text18" fill="black"><text id="kity_text_193" text-rendering="inherit" font-size="12" dy=".8em" y="1030.5" x="911.5">加载模板列表</text></g></g><g id="minder_node20"><g id="node_expander22" style="cursor: pointer;"><path id="kity_path_419" fill="white" stroke="gray" d="M901.5,1166.5A6,6,0,1,1,889.5,1166.5A6,6,0,1,1,901.5,1166.5"></path><path id="kity_path_420" fill="none" stroke="gray" d="M891,1166.5L900,1166.5"></path></g><path id="node_outline23" fill="none" stroke="none" d="M906.5,1155.5h106a5,5,0,0,1,5,5v12a5,5,0,0,1,-5,5h-106a5,5,0,0,1,-5,-5v-12a5,5,0,0,1,5,-5z"></path><g id="node_text23" fill="black"><text id="kity_text_203" text-rendering="inherit" font-size="12" dy=".8em" y="1160.5" x="911.5">加载模板对应资源</text></g></g><g id="minder_node21"><g id="node_expander18" display="none" style="cursor: pointer;"><path id="kity_path_407" fill="white" stroke="gray" d="M1073.5,1088.5A6,6,0,1,1,1061.5,1088.5A6,6,0,1,1,1073.5,1088.5"></path><path id="kity_path_408" fill="none" stroke="gray"></path></g><path id="node_outline19" fill="none" stroke="none" d="M1062.5,1077.5h58a5,5,0,0,1,5,5v12a5,5,0,0,1,-5,5h-58a5,5,0,0,1,-5,-5v-12a5,5,0,0,1,5,-5z"></path><g id="node_text19" fill="black"><text id="kity_text_195" text-rendering="inherit" font-size="12" dy=".8em" y="1082.5" x="1067.5">背景音乐</text></g></g><g id="minder_node22"><g id="node_expander19" display="none" style="cursor: pointer;"><path id="kity_path_410" fill="white" stroke="gray" d="M1073.5,1140.5A6,6,0,1,1,1061.5,1140.5A6,6,0,1,1,1073.5,1140.5"></path><path id="kity_path_411" fill="none" stroke="gray"></path></g><path id="node_outline20" fill="none" stroke="none" d="M1062.5,1129.5h34a5,5,0,0,1,5,5v12a5,5,0,0,1,-5,5h-34a5,5,0,0,1,-5,-5v-12a5,5,0,0,1,5,-5z"></path><g id="node_text20" fill="black"><text id="kity_text_197" text-rendering="inherit" font-size="12" dy=".8em" y="1134.5" x="1067.5">片头</text></g></g><g id="minder_node23"><g id="node_expander20" display="none" style="cursor: pointer;"><path id="kity_path_413" fill="white" stroke="gray" d="M1073.5,1192.5A6,6,0,1,1,1061.5,1192.5A6,6,0,1,1,1073.5,1192.5"></path><path id="kity_path_414" fill="none" stroke="gray"></path></g><path id="node_outline21" fill="none" stroke="none" d="M1062.5,1181.5h34a5,5,0,0,1,5,5v12a5,5,0,0,1,-5,5h-34a5,5,0,0,1,-5,-5v-12a5,5,0,0,1,5,-5z"></path><g id="node_text21" fill="black"><text id="kity_text_199" text-rendering="inherit" font-size="12" dy=".8em" y="1186.5" x="1067.5">片尾</text></g></g><g id="minder_node24"><g id="node_expander21" display="none" style="cursor: pointer;"><path id="kity_path_416" fill="white" stroke="gray" d="M1076.5,1245.5A6,6,0,1,1,1064.5,1245.5A6,6,0,1,1,1076.5,1245.5"></path><path id="kity_path_417" fill="none" stroke="gray"></path></g><path id="node_outline22" fill="none" stroke="none" d="M1065.5,1234.5h34a5,5,0,0,1,5,5v12a5,5,0,0,1,-5,5h-34a5,5,0,0,1,-5,-5v-12a5,5,0,0,1,5,-5z"></path><g id="node_text22" fill="black"><text id="kity_text_201" text-rendering="inherit" font-size="12" dy=".8em" y="1239.5" x="1070.5">样片</text></g></g><g id="minder_node25"><g id="node_expander23" display="none" style="cursor: pointer;"><path id="kity_path_422" fill="white" stroke="gray" d="M917.5,1296.5A6,6,0,1,1,905.5,1296.5A6,6,0,1,1,917.5,1296.5"></path><path id="kity_path_423" fill="none" stroke="gray"></path></g><path id="node_outline24" fill="none" stroke="none" d="M906.5,1285.5h58a5,5,0,0,1,5,5v12a5,5,0,0,1,-5,5h-58a5,5,0,0,1,-5,-5v-12a5,5,0,0,1,5,-5z"></path><g id="node_text24" fill="black"><text id="kity_text_205" text-rendering="inherit" font-size="12" dy=".8em" y="1290.5" x="911.5">样片播放</text></g></g><g id="minder_node26"><g id="node_expander29" style="cursor: pointer;"><path id="kity_path_440" fill="white" stroke="gray" d="M786.5,776.5A6,6,0,1,1,774.5,776.5A6,6,0,1,1,786.5,776.5"></path><path id="kity_path_441" fill="none" stroke="gray" d="M776,776.5L785,776.5"></path></g><path id="node_outline30" fill="rgb(238, 243, 246)" stroke="rgb(115, 161, 191)" d="M790.5,763.5h74a3,3,0,0,1,3,3v20a3,3,0,0,1,-3,3h-74a3,3,0,0,1,-3,-3v-20a3,3,0,0,1,3,-3z" stroke-width="1"></path><g id="node_text30" fill="black"><text id="kity_text_217" text-rendering="inherit" font-size="14" dy=".8em" y="769.5" x="807.5">UI模块</text></g></g><g id="minder_node27"><g id="node_expander25" display="none" style="cursor: pointer;"><path id="kity_path_428" fill="white" stroke="gray" d="M950.5,656.5A6,6,0,1,1,938.5,656.5A6,6,0,1,1,950.5,656.5"></path><path id="kity_path_429" fill="none" stroke="gray"></path></g><path id="node_outline26" fill="none" stroke="none" d="M939.5,645.5h46a5,5,0,0,1,5,5v12a5,5,0,0,1,-5,5h-46a5,5,0,0,1,-5,-5v-12a5,5,0,0,1,5,-5z"></path><g id="node_text26" fill="black"><text id="kity_text_209" text-rendering="inherit" font-size="12" dy=".8em" y="650.5" x="944.5">主框架</text></g></g><g id="minder_node28"><g id="node_expander26" display="none" style="cursor: pointer;"><path id="kity_path_431" fill="white" stroke="gray" d="M953.5,724.5A6,6,0,1,1,941.5,724.5A6,6,0,1,1,953.5,724.5"></path><path id="kity_path_432" fill="none" stroke="gray"></path></g><path id="node_outline27" fill="none" stroke="none" d="M942.5,713.5h34a5,5,0,0,1,5,5v12a5,5,0,0,1,-5,5h-34a5,5,0,0,1,-5,-5v-12a5,5,0,0,1,5,-5z"></path><g id="node_text27" fill="black"><text id="kity_text_211" text-rendering="inherit" font-size="12" dy=".8em" y="718.5" x="947.5">风格</text></g></g><g id="minder_node29"><g id="node_expander27" display="none" style="cursor: pointer;"><path id="kity_path_434" fill="white" stroke="gray" d="M952.5,808.5A6,6,0,1,1,940.5,808.5A6,6,0,1,1,952.5,808.5"></path><path id="kity_path_435" fill="none" stroke="gray"></path></g><path id="node_outline28" fill="none" stroke="none" d="M941.5,797.5h46a5,5,0,0,1,5,5v12a5,5,0,0,1,-5,5h-46a5,5,0,0,1,-5,-5v-12a5,5,0,0,1,5,-5z"></path><g id="node_text28" fill="black"><text id="kity_text_213" text-rendering="inherit" font-size="12" dy=".8em" y="802.5" x="946.5">自适应</text></g></g><g id="minder_node30"><g id="node_expander28" display="none" style="cursor: pointer;"><path id="kity_path_437" fill="white" stroke="gray" d="M944.5,890.5A6,6,0,1,1,932.5,890.5A6,6,0,1,1,944.5,890.5"></path><path id="kity_path_438" fill="none" stroke="gray"></path></g><path id="node_outline29" fill="none" stroke="none" d="M933.5,879.5h58a5,5,0,0,1,5,5v12a5,5,0,0,1,-5,5h-58a5,5,0,0,1,-5,-5v-12a5,5,0,0,1,5,-5z"></path><g id="node_text29" fill="black"><text id="kity_text_215" text-rendering="inherit" font-size="12" dy=".8em" y="884.5" x="938.5">用户向导</text></g></g><g id="minder_node31"><g id="node_expander47" style="cursor: pointer;"><path id="kity_path_494" fill="white" stroke="gray" d="M831.5,1600.5A6,6,0,1,1,819.5,1600.5A6,6,0,1,1,831.5,1600.5"></path><path id="kity_path_495" fill="none" stroke="gray" d="M821,1600.5L830,1600.5"></path></g><path id="node_outline48" fill="rgb(238, 243, 246)" stroke="rgb(115, 161, 191)" d="M835.5,1587.5h118a3,3,0,0,1,3,3v20a3,3,0,0,1,-3,3h-118a3,3,0,0,1,-3,-3v-20a3,3,0,0,1,3,-3z" stroke-width="1"></path><g id="node_text48" fill="black"><text id="kity_text_253" text-rendering="inherit" font-size="14" dy=".8em" y="1593.5" x="852.5">成片管理模块</text></g></g><g id="minder_node32"><g id="node_expander30" display="none" style="cursor: pointer;"><path id="kity_path_443" fill="white" stroke="gray" d="M1012.5,1288.5A6,6,0,1,1,1000.5,1288.5A6,6,0,1,1,1012.5,1288.5"></path><path id="kity_path_444" fill="none" stroke="gray"></path></g><path id="node_outline31" fill="none" stroke="none" d="M1001.5,1277.5h70a5,5,0,0,1,5,5v12a5,5,0,0,1,-5,5h-70a5,5,0,0,1,-5,-5v-12a5,5,0,0,1,5,-5z"></path><g id="node_text31" fill="black"><text id="kity_text_219" text-rendering="inherit" font-size="12" dy=".8em" y="1282.5" x="1006.5">本地化存储</text></g></g><g id="minder_node33"><g id="node_expander31" display="none" style="cursor: pointer;"><path id="kity_path_446" fill="white" stroke="gray" d="M1012.5,1340.5A6,6,0,1,1,1000.5,1340.5A6,6,0,1,1,1012.5,1340.5"></path><path id="kity_path_447" fill="none" stroke="gray"></path></g><path id="node_outline32" fill="none" stroke="none" d="M1001.5,1329.5h82a5,5,0,0,1,5,5v12a5,5,0,0,1,-5,5h-82a5,5,0,0,1,-5,-5v-12a5,5,0,0,1,5,-5z"></path><g id="node_text32" fill="black"><text id="kity_text_221" text-rendering="inherit" font-size="12" dy=".8em" y="1334.5" x="1006.5">浏览成片列表</text></g></g><g id="minder_node34"><g id="node_expander32" display="none" style="cursor: pointer;"><path id="kity_path_449" fill="white" stroke="gray" d="M1012.5,1392.5A6,6,0,1,1,1000.5,1392.5A6,6,0,1,1,1012.5,1392.5"></path><path id="kity_path_450" fill="none" stroke="gray"></path></g><path id="node_outline33" fill="none" stroke="none" d="M1001.5,1381.5h34a5,5,0,0,1,5,5v12a5,5,0,0,1,-5,5h-34a5,5,0,0,1,-5,-5v-12a5,5,0,0,1,5,-5z"></path><g id="node_text33" fill="black"><text id="kity_text_223" text-rendering="inherit" font-size="12" dy=".8em" y="1386.5" x="1006.5">删除</text></g></g><g id="minder_node35"><g id="node_expander35" style="cursor: pointer;"><path id="kity_path_458" fill="white" stroke="gray" d="M996.5,1470.5A6,6,0,1,1,984.5,1470.5A6,6,0,1,1,996.5,1470.5"></path><path id="kity_path_459" fill="none" stroke="gray" d="M986,1470.5L995,1470.5"></path></g><path id="node_outline36" fill="none" stroke="none" d="M1001.5,1459.5h58a5,5,0,0,1,5,5v12a5,5,0,0,1,-5,5h-58a5,5,0,0,1,-5,-5v-12a5,5,0,0,1,5,-5z"></path><g id="node_text36" fill="black"><text id="kity_text_229" text-rendering="inherit" font-size="12" dy=".8em" y="1464.5" x="1006.5">扩展属性</text></g></g><g id="minder_node36"><g id="node_expander33" display="none" style="cursor: pointer;"><path id="kity_path_452" fill="white" stroke="gray" d="M1120.5,1444.5A6,6,0,1,1,1108.5,1444.5A6,6,0,1,1,1120.5,1444.5"></path><path id="kity_path_453" fill="none" stroke="gray"></path></g><path id="node_outline34" fill="none" stroke="none" d="M1109.5,1433.5h34a5,5,0,0,1,5,5v12a5,5,0,0,1,-5,5h-34a5,5,0,0,1,-5,-5v-12a5,5,0,0,1,5,-5z"></path><g id="node_text34" fill="black"><text id="kity_text_225" text-rendering="inherit" font-size="12" dy=".8em" y="1438.5" x="1114.5">查看</text></g></g><g id="minder_node37"><g id="node_expander34" display="none" style="cursor: pointer;"><path id="kity_path_455" fill="white" stroke="gray" d="M1120.5,1496.5A6,6,0,1,1,1108.5,1496.5A6,6,0,1,1,1120.5,1496.5"></path><path id="kity_path_456" fill="none" stroke="gray"></path></g><path id="node_outline35" fill="none" stroke="none" d="M1109.5,1485.5h34a5,5,0,0,1,5,5v12a5,5,0,0,1,-5,5h-34a5,5,0,0,1,-5,-5v-12a5,5,0,0,1,5,-5z"></path><g id="node_text35" fill="black"><text id="kity_text_227" text-rendering="inherit" font-size="12" dy=".8em" y="1490.5" x="1114.5">编辑</text></g></g><g id="minder_node38"><g id="node_expander38" style="cursor: pointer;"><path id="kity_path_467" fill="white" stroke="gray" d="M996.5,1574.5A6,6,0,1,1,984.5,1574.5A6,6,0,1,1,996.5,1574.5"></path><path id="kity_path_468" fill="none" stroke="gray" d="M986,1574.5L995,1574.5"></path></g><path id="node_outline39" fill="none" stroke="none" d="M1001.5,1563.5h34a5,5,0,0,1,5,5v12a5,5,0,0,1,-5,5h-34a5,5,0,0,1,-5,-5v-12a5,5,0,0,1,5,-5z"></path><g id="node_text39" fill="black"><text id="kity_text_235" text-rendering="inherit" font-size="12" dy=".8em" y="1568.5" x="1006.5">导出</text></g></g><g id="minder_node39"><g id="node_expander36" display="none" style="cursor: pointer;"><path id="kity_path_461" fill="white" stroke="gray" d="M1096.5,1548.5A6,6,0,1,1,1084.5,1548.5A6,6,0,1,1,1096.5,1548.5"></path><path id="kity_path_462" fill="none" stroke="gray"></path></g><path id="node_outline37" fill="none" stroke="none" d="M1085.5,1537.5h34a5,5,0,0,1,5,5v12a5,5,0,0,1,-5,5h-34a5,5,0,0,1,-5,-5v-12a5,5,0,0,1,5,-5z"></path><g id="node_text37" fill="black"><text id="kity_text_231" text-rendering="inherit" font-size="12" dy=".8em" y="1542.5" x="1090.5">成片</text></g></g><g id="minder_node40"><g id="node_expander37" display="none" style="cursor: pointer;"><path id="kity_path_464" fill="white" stroke="gray" d="M1096.5,1600.5A6,6,0,1,1,1084.5,1600.5A6,6,0,1,1,1096.5,1600.5"></path><path id="kity_path_465" fill="none" stroke="gray"></path></g><path id="node_outline38" fill="none" stroke="none" d="M1085.5,1589.5h34a5,5,0,0,1,5,5v12a5,5,0,0,1,-5,5h-34a5,5,0,0,1,-5,-5v-12a5,5,0,0,1,5,-5z"></path><g id="node_text38" fill="black"><text id="kity_text_233" text-rendering="inherit" font-size="12" dy=".8em" y="1594.5" x="1090.5">预告</text></g></g><g id="minder_node41"><g id="node_expander42" style="cursor: pointer;"><path id="kity_path_479" fill="white" stroke="gray" d="M996.5,1704.5A6,6,0,1,1,984.5,1704.5A6,6,0,1,1,996.5,1704.5"></path><path id="kity_path_480" fill="none" stroke="gray" d="M986,1704.5L995,1704.5"></path></g><path id="node_outline43" fill="none" stroke="none" d="M1001.5,1693.5h34a5,5,0,0,1,5,5v12a5,5,0,0,1,-5,5h-34a5,5,0,0,1,-5,-5v-12a5,5,0,0,1,5,-5z"></path><g id="node_text43" fill="black"><text id="kity_text_243" text-rendering="inherit" font-size="12" dy=".8em" y="1698.5" x="1006.5">草稿</text></g></g><g id="minder_node42"><g id="node_expander39" display="none" style="cursor: pointer;"><path id="kity_path_470" fill="white" stroke="gray" d="M1096.5,1652.5A6,6,0,1,1,1084.5,1652.5A6,6,0,1,1,1096.5,1652.5"></path><path id="kity_path_471" fill="none" stroke="gray"></path></g><path id="node_outline40" fill="none" stroke="none" d="M1085.5,1641.5h58a5,5,0,0,1,5,5v12a5,5,0,0,1,-5,5h-58a5,5,0,0,1,-5,-5v-12a5,5,0,0,1,5,-5z"></path><g id="node_text40" fill="black"><text id="kity_text_237" text-rendering="inherit" font-size="12" dy=".8em" y="1646.5" x="1090.5">自动保存</text></g></g><g id="minder_node43"><g id="node_expander40" display="none" style="cursor: pointer;"><path id="kity_path_473" fill="white" stroke="gray" d="M1096.5,1704.5A6,6,0,1,1,1084.5,1704.5A6,6,0,1,1,1096.5,1704.5"></path><path id="kity_path_474" fill="none" stroke="gray"></path></g><path id="node_outline41" fill="none" stroke="none" d="M1085.5,1693.5h34a5,5,0,0,1,5,5v12a5,5,0,0,1,-5,5h-34a5,5,0,0,1,-5,-5v-12a5,5,0,0,1,5,-5z"></path><g id="node_text41" fill="black"><text id="kity_text_239" text-rendering="inherit" font-size="12" dy=".8em" y="1698.5" x="1090.5">删除</text></g></g><g id="minder_node44"><g id="node_expander41" display="none" style="cursor: pointer;"><path id="kity_path_476" fill="white" stroke="gray" d="M1096.5,1756.5A6,6,0,1,1,1084.5,1756.5A6,6,0,1,1,1096.5,1756.5"></path><path id="kity_path_477" fill="none" stroke="gray"></path></g><path id="node_outline42" fill="none" stroke="none" d="M1085.5,1745.5h58a5,5,0,0,1,5,5v12a5,5,0,0,1,-5,5h-58a5,5,0,0,1,-5,-5v-12a5,5,0,0,1,5,-5z"></path><g id="node_text42" fill="black"><text id="kity_text_241" text-rendering="inherit" font-size="12" dy=".8em" y="1750.5" x="1090.5">独占模式</text></g></g><g id="minder_node45"><g id="node_expander45" style="cursor: pointer;"><path id="kity_path_488" fill="white" stroke="gray" d="M996.5,1834.5A6,6,0,1,1,984.5,1834.5A6,6,0,1,1,996.5,1834.5"></path><path id="kity_path_489" fill="none" stroke="gray" d="M986,1834.5L995,1834.5"></path></g><path id="node_outline46" fill="none" stroke="none" d="M1001.5,1823.5h106a5,5,0,0,1,5,5v12a5,5,0,0,1,-5,5h-106a5,5,0,0,1,-5,-5v-12a5,5,0,0,1,5,-5z"></path><g id="node_text46" fill="black"><text id="kity_text_249" text-rendering="inherit" font-size="12" dy=".8em" y="1828.5" x="1006.5">加载成片对应资源</text></g></g><g id="minder_node46"><g id="node_expander43" display="none" style="cursor: pointer;"><path id="kity_path_482" fill="white" stroke="gray" d="M1168.5,1808.5A6,6,0,1,1,1156.5,1808.5A6,6,0,1,1,1168.5,1808.5"></path><path id="kity_path_483" fill="none" stroke="gray"></path></g><path id="node_outline44" fill="none" stroke="none" d="M1157.5,1797.5h58a5,5,0,0,1,5,5v12a5,5,0,0,1,-5,5h-58a5,5,0,0,1,-5,-5v-12a5,5,0,0,1,5,-5z"></path><g id="node_text44" fill="black"><text id="kity_text_245" text-rendering="inherit" font-size="12" dy=".8em" y="1802.5" x="1162.5">成片视频</text></g></g><g id="minder_node47"><g id="node_expander44" display="none" style="cursor: pointer;"><path id="kity_path_485" fill="white" stroke="gray" d="M1168.5,1860.5A6,6,0,1,1,1156.5,1860.5A6,6,0,1,1,1168.5,1860.5"></path><path id="kity_path_486" fill="none" stroke="gray"></path></g><path id="node_outline45" fill="none" stroke="none" d="M1157.5,1849.5h58a5,5,0,0,1,5,5v12a5,5,0,0,1,-5,5h-58a5,5,0,0,1,-5,-5v-12a5,5,0,0,1,5,-5z"></path><g id="node_text45" fill="black"><text id="kity_text_247" text-rendering="inherit" font-size="12" dy=".8em" y="1854.5" x="1162.5">预告视频</text></g></g><g id="minder_node48"><g id="node_expander46" display="none" style="cursor: pointer;"><path id="kity_path_491" fill="white" stroke="gray" d="M1012.5,1912.5A6,6,0,1,1,1000.5,1912.5A6,6,0,1,1,1012.5,1912.5"></path><path id="kity_path_492" fill="none" stroke="gray"></path></g><path id="node_outline47" fill="none" stroke="none" d="M1001.5,1901.5h34a5,5,0,0,1,5,5v12a5,5,0,0,1,-5,5h-34a5,5,0,0,1,-5,-5v-12a5,5,0,0,1,5,-5z"></path><g id="node_text47" fill="black"><text id="kity_text_251" text-rendering="inherit" font-size="12" dy=".8em" y="1906.5" x="1006.5">播放</text></g></g><g id="minder_node49"><g id="node_expander59" style="cursor: pointer;"><path id="kity_path_530" fill="white" stroke="gray" d="M399.5,705.5A6,6,0,1,1,387.5,705.5A6,6,0,1,1,399.5,705.5"></path><path id="kity_path_531" fill="none" stroke="gray" d="M389,705.5L398,705.5"></path></g><path id="node_outline60" fill="rgb(238, 243, 246)" stroke="rgb(115, 161, 191)" d="M251.5,692.5h132a3,3,0,0,1,3,3v20a3,3,0,0,1,-3,3h-132a3,3,0,0,1,-3,-3v-20a3,3,0,0,1,3,-3z" stroke-width="1"></path><g id="node_text60" fill="black"><text id="kity_text_277" text-rendering="inherit" font-size="14" dy=".8em" y="698.5" x="268.5">音视频引擎模块</text></g></g><g id="minder_node50"><g id="node_expander51" style="cursor: pointer;"><path id="kity_path_506" fill="white" stroke="gray" d="M222.5,467.5A6,6,0,1,1,210.5,467.5A6,6,0,1,1,222.5,467.5"></path><path id="kity_path_507" fill="none" stroke="gray" d="M212,467.5L221,467.5"></path></g><path id="node_outline52" fill="none" stroke="none" d="M147.5,456.5h58a5,5,0,0,1,5,5v12a5,5,0,0,1,-5,5h-58a5,5,0,0,1,-5,-5v-12a5,5,0,0,1,5,-5z"></path><g id="node_text52" fill="black"><text id="kity_text_261" text-rendering="inherit" font-size="12" dy=".8em" y="461.5" x="152.5">片段拍摄</text></g></g><g id="minder_node51"><g id="node_expander48" display="none" style="cursor: pointer;"><path id="kity_path_497" fill="white" stroke="gray" d="M74.5,415.5A6,6,0,1,1,62.5,415.5A6,6,0,1,1,74.5,415.5"></path><path id="kity_path_498" fill="none" stroke="gray"></path></g><path id="node_outline49" fill="none" stroke="none" d="M63.5,404.5h34a5,5,0,0,1,5,5v12a5,5,0,0,1,-5,5h-34a5,5,0,0,1,-5,-5v-12a5,5,0,0,1,5,-5z"></path><g id="node_text49" fill="black"><text id="kity_text_255" text-rendering="inherit" font-size="12" dy=".8em" y="409.5" x="68.5">正常</text></g></g><g id="minder_node52"><g id="node_expander49" display="none" style="cursor: pointer;"><path id="kity_path_500" fill="white" stroke="gray" d="M62.5,467.5A6,6,0,1,1,50.5,467.5A6,6,0,1,1,62.5,467.5"></path><path id="kity_path_501" fill="none" stroke="gray"></path></g><path id="node_outline50" fill="none" stroke="none" d="M51.5,456.5h46a5,5,0,0,1,5,5v12a5,5,0,0,1,-5,5h-46a5,5,0,0,1,-5,-5v-12a5,5,0,0,1,5,-5z"></path><g id="node_text50" fill="black"><text id="kity_text_257" text-rendering="inherit" font-size="12" dy=".8em" y="461.5" x="56.5">慢动作</text></g></g><g id="minder_node53"><g id="node_expander50" display="none" style="cursor: pointer;"><path id="kity_path_503" fill="white" stroke="gray" d="M74.5,519.5A6,6,0,1,1,62.5,519.5A6,6,0,1,1,74.5,519.5"></path><path id="kity_path_504" fill="none" stroke="gray"></path></g><path id="node_outline51" fill="none" stroke="none" d="M63.5,508.5h34a5,5,0,0,1,5,5v12a5,5,0,0,1,-5,5h-34a5,5,0,0,1,-5,-5v-12a5,5,0,0,1,5,-5z"></path><g id="node_text51" fill="black"><text id="kity_text_259" text-rendering="inherit" font-size="12" dy=".8em" y="513.5" x="68.5">延时</text></g></g><g id="minder_node54"><g id="node_expander52" display="none" style="cursor: pointer;"><path id="kity_path_509" fill="white" stroke="gray" d="M157.5,589.5A6,6,0,1,1,145.5,589.5A6,6,0,1,1,157.5,589.5"></path><path id="kity_path_510" fill="none" stroke="gray"></path></g><path id="node_outline53" fill="none" stroke="none" d="M146.5,578.5h58a5,5,0,0,1,5,5v12a5,5,0,0,1,-5,5h-58a5,5,0,0,1,-5,-5v-12a5,5,0,0,1,5,-5z"></path><g id="node_text53" fill="black"><text id="kity_text_263" text-rendering="inherit" font-size="12" dy=".8em" y="583.5" x="151.5">片段合并</text></g></g><g id="minder_node55"><g id="node_expander56" style="cursor: pointer;"><path id="kity_path_521" fill="white" stroke="gray" d="M220.5,731.5A6,6,0,1,1,208.5,731.5A6,6,0,1,1,220.5,731.5"></path><path id="kity_path_522" fill="none" stroke="gray" d="M210,731.5L219,731.5"></path></g><path id="node_outline57" fill="none" stroke="none" d="M145.5,720.5h58a5,5,0,0,1,5,5v12a5,5,0,0,1,-5,5h-58a5,5,0,0,1,-5,-5v-12a5,5,0,0,1,5,-5z"></path><g id="node_text57" fill="black"><text id="kity_text_271" text-rendering="inherit" font-size="12" dy=".8em" y="725.5" x="150.5">背景音乐</text></g></g><g id="minder_node56"><g id="node_expander53" display="none" style="cursor: pointer;"><path id="kity_path_512" fill="white" stroke="gray" d="M72.5,679.5A6,6,0,1,1,60.5,679.5A6,6,0,1,1,72.5,679.5"></path><path id="kity_path_513" fill="none" stroke="gray"></path></g><path id="node_outline54" fill="none" stroke="none" d="M61.5,668.5h34a5,5,0,0,1,5,5v12a5,5,0,0,1,-5,5h-34a5,5,0,0,1,-5,-5v-12a5,5,0,0,1,5,-5z"></path><g id="node_text54" fill="black"><text id="kity_text_265" text-rendering="inherit" font-size="12" dy=".8em" y="673.5" x="66.5">空镜</text></g></g><g id="minder_node57"><g id="node_expander54" display="none" style="cursor: pointer;"><path id="kity_path_515" fill="white" stroke="gray" d="M72.5,731.5A6,6,0,1,1,60.5,731.5A6,6,0,1,1,72.5,731.5"></path><path id="kity_path_516" fill="none" stroke="gray"></path></g><path id="node_outline55" fill="none" stroke="none" d="M61.5,720.5h34a5,5,0,0,1,5,5v12a5,5,0,0,1,-5,5h-34a5,5,0,0,1,-5,-5v-12a5,5,0,0,1,5,-5z"></path><g id="node_text55" fill="black"><text id="kity_text_267" text-rendering="inherit" font-size="12" dy=".8em" y="725.5" x="66.5">人声</text></g></g><g id="minder_node58"><g id="node_expander55" display="none" style="cursor: pointer;"><path id="kity_path_518" fill="white" stroke="gray" d="M36.5,783.5A6,6,0,1,1,24.5,783.5A6,6,0,1,1,36.5,783.5"></path><path id="kity_path_519" fill="none" stroke="gray"></path></g><path id="node_outline56" fill="none" stroke="none" d="M25.5,772.5h70a5,5,0,0,1,5,5v12a5,5,0,0,1,-5,5h-70a5,5,0,0,1,-5,-5v-12a5,5,0,0,1,5,-5z"></path><g id="node_text56" fill="black"><text id="kity_text_269" text-rendering="inherit" font-size="12" dy=".8em" y="777.5" x="30.5">与视频合并</text></g></g><g id="minder_node59"><g id="node_expander57" display="none" style="cursor: pointer;"><path id="kity_path_524" fill="white" stroke="gray" d="M155.5,830.5A6,6,0,1,1,143.5,830.5A6,6,0,1,1,155.5,830.5"></path><path id="kity_path_525" fill="none" stroke="gray"></path></g><path id="node_outline58" fill="none" stroke="none" d="M144.5,819.5h58a5,5,0,0,1,5,5v12a5,5,0,0,1,-5,5h-58a5,5,0,0,1,-5,-5v-12a5,5,0,0,1,5,-5z"></path><g id="node_text58" fill="black"><text id="kity_text_273" text-rendering="inherit" font-size="12" dy=".8em" y="824.5" x="149.5">片头片尾</text></g></g><g id="minder_node60"><g id="node_expander58" display="none" style="cursor: pointer;"><path id="kity_path_527" fill="white" stroke="gray" d="M156.5,911.5A6,6,0,1,1,144.5,911.5A6,6,0,1,1,156.5,911.5"></path><path id="kity_path_528" fill="none" stroke="gray"></path></g><path id="node_outline59" fill="none" stroke="none" d="M145.5,900.5h58a5,5,0,0,1,5,5v12a5,5,0,0,1,-5,5h-58a5,5,0,0,1,-5,-5v-12a5,5,0,0,1,5,-5z"></path><g id="node_text59" fill="black"><text id="kity_text_275" text-rendering="inherit" font-size="12" dy=".8em" y="905.5" x="150.5">片段剪切</text></g></g><g id="minder_node61"><g id="node_expander63" style="cursor: pointer;"><path id="kity_path_542" fill="white" stroke="gray" d="M412.5,1063.5A6,6,0,1,1,400.5,1063.5A6,6,0,1,1,412.5,1063.5"></path><path id="kity_path_543" fill="none" stroke="gray" d="M402,1063.5L411,1063.5"></path></g><path id="node_outline64" fill="rgb(238, 243, 246)" stroke="rgb(115, 161, 191)" d="M250.5,1050.5h146a3,3,0,0,1,3,3v20a3,3,0,0,1,-3,3h-146a3,3,0,0,1,-3,-3v-20a3,3,0,0,1,3,-3z" stroke-width="1"></path><g id="node_text64" fill="black"><text id="kity_text_285" text-rendering="inherit" font-size="14" dy=".8em" y="1056.5" x="267.5">用户数据跟踪模块</text></g></g><g id="minder_node62"><g id="node_expander60" display="none" style="cursor: pointer;"><path id="kity_path_533" fill="white" stroke="gray" d="M179.5,1011.5A6,6,0,1,1,167.5,1011.5A6,6,0,1,1,179.5,1011.5"></path><path id="kity_path_534" fill="none" stroke="gray"></path></g><path id="node_outline61" fill="none" stroke="none" d="M168.5,1000.5h34a5,5,0,0,1,5,5v12a5,5,0,0,1,-5,5h-34a5,5,0,0,1,-5,-5v-12a5,5,0,0,1,5,-5z"></path><g id="node_text61" fill="black"><text id="kity_text_279" text-rendering="inherit" font-size="12" dy=".8em" y="1005.5" x="173.5">埋点</text></g></g><g id="minder_node63"><g id="node_expander61" display="none" style="cursor: pointer;"><path id="kity_path_536" fill="white" stroke="gray" d="M73.5,1063.5A6,6,0,1,1,61.5,1063.5A6,6,0,1,1,73.5,1063.5"></path><path id="kity_path_537" fill="none" stroke="gray"></path></g><path id="node_outline62" fill="none" stroke="none" d="M62.5,1052.5h140a5,5,0,0,1,5,5v12a5,5,0,0,1,-5,5h-140a5,5,0,0,1,-5,-5v-12a5,5,0,0,1,5,-5z"></path><g id="node_text62" fill="black"><text id="kity_text_281" text-rendering="inherit" font-size="12" dy=".8em" y="1057.5" x="67.5">Crash记录、跟踪、上报</text></g></g><g id="minder_node64"><g id="node_expander62" display="none" style="cursor: pointer;"><path id="kity_path_539" fill="white" stroke="gray" d="M179.5,1115.5A6,6,0,1,1,167.5,1115.5A6,6,0,1,1,179.5,1115.5"></path><path id="kity_path_540" fill="none" stroke="gray"></path></g><path id="node_outline63" fill="none" stroke="none" d="M168.5,1104.5h34a5,5,0,0,1,5,5v12a5,5,0,0,1,-5,5h-34a5,5,0,0,1,-5,-5v-12a5,5,0,0,1,5,-5z"></path><g id="node_text63" fill="black"><text id="kity_text_283" text-rendering="inherit" font-size="12" dy=".8em" y="1109.5" x="173.5">反馈</text></g></g><g id="minder_node65"><g id="node_expander64" display="none" style="cursor: pointer;"><path id="kity_path_545" fill="white" stroke="gray" d="M427.5,1186.5A6,6,0,1,1,415.5,1186.5A6,6,0,1,1,427.5,1186.5"></path><path id="kity_path_546" fill="none" stroke="gray"></path></g><path id="node_outline65" fill="rgb(238, 243, 246)" stroke="rgb(115, 161, 191)" d="M404.5,1173.5h90a3,3,0,0,1,3,3v20a3,3,0,0,1,-3,3h-90a3,3,0,0,1,-3,-3v-20a3,3,0,0,1,3,-3z" stroke-width="1"></path><g id="node_text65" fill="black"><text id="kity_text_287" text-rendering="inherit" font-size="14" dy=".8em" y="1179.5" x="421.5">主体框架</text></g></g><g id="minder_node66"><g id="node_expander65" display="none" style="cursor: pointer;"><path id="kity_path_548" fill="white" stroke="gray" d="M249.5,1306.5A6,6,0,1,1,237.5,1306.5A6,6,0,1,1,249.5,1306.5"></path><path id="kity_path_549" fill="none" stroke="gray"></path></g><path id="node_outline66" fill="rgb(238, 243, 246)" stroke="rgb(115, 161, 191)" d="M226.5,1293.5h90a3,3,0,0,1,3,3v20a3,3,0,0,1,-3,3h-90a3,3,0,0,1,-3,-3v-20a3,3,0,0,1,3,-3z" stroke-width="1"></path><g id="node_text66" fill="black"><text id="kity_text_289" text-rendering="inherit" font-size="14" dy=".8em" y="1299.5" x="243.5">公共模块</text></g></g></g></g></svg>