<svg id="kity_svg_6" xmlns="http://www.w3.org/2000/svg" xmlns:xlink="http://www.w3.org/1999/xlink" version="1.1" width="999" height="1841" style="background: rgb(251, 251, 251); visibility: visible;" viewBox="0 0 999 1841"><defs id="kity_defs_7"><linearGradient id="kity_linearGradient_17" x1="0" y1="0" x2="0" y2="1"><stop id="kity_stop_18" offset="0" stop-color="rgb(255, 255, 255)"></stop><stop id="kity_stop_19" offset="1" stop-color="rgb(204, 204, 204)"></stop></linearGradient><marker id="kity_marker_2" orient="auto" refX="6" refY="0" viewBox="-7 -7 14 14" markerWidth="7" markerHeight="7" markerUnits="userSpaceOnUse"><path id="kity_path_3" fill="rgb(115, 161, 191)" stroke="none" d="M6,0A6,6,0,1,1,-6,0A6,6,0,1,1,6,0"></path></marker></defs><g id="kity_g_8"><g id="minder1" text-rendering="optimize-speed"><g id="minder_connect_group1"><path id="kity_path_31" fill="none" stroke="rgb(115, 161, 191)" stroke-width="1" d="M437.5,978.5A175,466,0,0,1,612.5,512.5"></path><path id="kity_path_33" fill="none" stroke="rgb(115, 161, 191)" stroke-width="1" d="M682.5,512.5C697.5,512.5,697.5,175.5,712.5,175.5L790.5,175.5"></path><path id="kity_path_35" fill="none" stroke="rgb(115, 161, 191)" stroke-width="1" d="M790.5,175.5C805.5,175.5,805.5,45.5,820.5,45.5L874.5,45.5"></path><path id="kity_path_37" fill="none" stroke="rgb(115, 161, 191)" stroke-width="1" d="M790.5,175.5C805.5,175.5,805.5,97.5,820.5,97.5L874.5,97.5"></path><path id="kity_path_39" fill="none" stroke="rgb(115, 161, 191)" stroke-width="1" d="M790.5,175.5C805.5,175.5,805.5,149.5,820.5,149.5L874.5,149.5"></path><path id="kity_path_41" fill="none" stroke="rgb(115, 161, 191)" stroke-width="1" d="M790.5,175.5C805.5,175.5,805.5,201.5,820.5,201.5L874.5,201.5"></path><path id="kity_path_43" fill="none" stroke="rgb(115, 161, 191)" stroke-width="1" d="M790.5,175.5C805.5,175.5,805.5,253.5,820.5,253.5L874.5,253.5"></path><path id="kity_path_45" fill="none" stroke="rgb(115, 161, 191)" stroke-width="1" d="M790.5,175.5C805.5,175.5,805.5,305.5,820.5,305.5L946.5,305.5"></path><path id="kity_path_47" fill="none" stroke="rgb(115, 161, 191)" stroke-width="1" d="M682.5,512.5C697.5,512.5,697.5,357.5,712.5,357.5L766.5,357.5"></path><path id="kity_path_49" fill="none" stroke="rgb(115, 161, 191)" stroke-width="1" d="M682.5,512.5C697.5,512.5,697.5,435.5,712.5,435.5L766.5,435.5"></path><path id="kity_path_51" fill="none" stroke="rgb(115, 161, 191)" stroke-width="1" d="M766.5,435.5C781.5,435.5,781.5,409.5,796.5,409.5L849.5,409.5"></path><path id="kity_path_53" fill="none" stroke="rgb(115, 161, 191)" stroke-width="1" d="M766.5,435.5C781.5,435.5,781.5,461.5,796.5,461.5L843.5,461.5"></path><path id="kity_path_55" fill="none" stroke="rgb(115, 161, 191)" stroke-width="1" d="M682.5,512.5C697.5,512.5,697.5,513.5,712.5,513.5L766.5,513.5"></path><path id="kity_path_57" fill="none" stroke="rgb(115, 161, 191)" stroke-width="1" d="M682.5,512.5C697.5,512.5,697.5,591.5,712.5,591.5L766.5,591.5"></path><path id="kity_path_59" fill="none" stroke="rgb(115, 161, 191)" stroke-width="1" d="M766.5,591.5C781.5,591.5,781.5,565.5,796.5,565.5L850.5,565.5"></path><path id="kity_path_61" fill="none" stroke="rgb(115, 161, 191)" stroke-width="1" d="M766.5,591.5C781.5,591.5,781.5,617.5,796.5,617.5L850.5,617.5"></path><path id="kity_path_63" fill="none" stroke="rgb(115, 161, 191)" stroke-width="1" d="M682.5,512.5C683,512.5,683,128.5,683.5,128.5L737.5,128.5"></path><path id="kity_path_65" fill="none" stroke="rgb(115, 161, 191)" stroke-width="1" d="M682.5,512.5C698,512.5,698,756.5,713.5,756.5L791.5,756.5"></path><path id="kity_path_67" fill="none" stroke="rgb(115, 161, 191)" stroke-width="1" d="M791.5,756.5C806.5,756.5,806.5,704.5,821.5,704.5L875.5,704.5"></path><path id="kity_path_69" fill="none" stroke="rgb(115, 161, 191)" stroke-width="1" d="M791.5,756.5C806.5,756.5,806.5,756.5,821.5,756.5L875.5,756.5"></path><path id="kity_path_71" fill="none" stroke="rgb(115, 161, 191)" stroke-width="1" d="M791.5,756.5C806.5,756.5,806.5,808.5,821.5,808.5L875.5,808.5"></path><path id="kity_path_73" fill="none" stroke="rgb(115, 161, 191)" stroke-width="1" d="M682.5,512.5C697.5,512.5,697.5,877.5,712.5,877.5L766.5,877.5"></path><path id="kity_path_75" fill="none" stroke="rgb(115, 161, 191)" stroke-width="1" d="M437.5,978.5A196,465,0,0,0,633.5,1443.5"></path><path id="kity_path_77" fill="none" stroke="rgb(115, 161, 191)" stroke-width="1" d="M703.5,1443.5C718.5,1443.5,718.5,1197.5,733.5,1197.5L787.5,1197.5"></path><path id="kity_path_79" fill="none" stroke="rgb(115, 161, 191)" stroke-width="1" d="M787.5,1197.5C802.5,1197.5,802.5,937.5,817.5,937.5L871.5,937.5"></path><path id="kity_path_81" fill="none" stroke="rgb(115, 161, 191)" stroke-width="1" d="M787.5,1197.5C802.5,1197.5,802.5,989.5,817.5,989.5L871.5,989.5"></path><path id="kity_path_83" fill="none" stroke="rgb(115, 161, 191)" stroke-width="1" d="M787.5,1197.5C802.5,1197.5,802.5,1041.5,817.5,1041.5L871.5,1041.5"></path><path id="kity_path_85" fill="none" stroke="rgb(115, 161, 191)" stroke-width="1" d="M787.5,1197.5C802.5,1197.5,802.5,1093.5,817.5,1093.5L871.5,1093.5"></path><path id="kity_path_87" fill="none" stroke="rgb(115, 161, 191)" stroke-width="1" d="M787.5,1197.5C802.5,1197.5,802.5,1145.5,817.5,1145.5L871.5,1145.5"></path><path id="kity_path_89" fill="none" stroke="rgb(115, 161, 191)" stroke-width="1" d="M787.5,1197.5C802.5,1197.5,802.5,1197.5,817.5,1197.5L871.5,1197.5"></path><path id="kity_path_91" fill="none" stroke="rgb(115, 161, 191)" stroke-width="1" d="M787.5,1197.5C802.5,1197.5,802.5,1249.5,817.5,1249.5L871.5,1249.5"></path><path id="kity_path_93" fill="none" stroke="rgb(115, 161, 191)" stroke-width="1" d="M787.5,1197.5C802.5,1197.5,802.5,1457.5,817.5,1457.5L871.5,1457.5"></path><path id="kity_path_95" fill="none" stroke="rgb(115, 161, 191)" stroke-width="1" d="M871.5,1457.5C886.5,1457.5,886.5,1301.5,901.5,1301.5L955.5,1301.5"></path><path id="kity_path_97" fill="none" stroke="rgb(115, 161, 191)" stroke-width="1" d="M871.5,1457.5C886.5,1457.5,886.5,1353.5,901.5,1353.5L955.5,1353.5"></path><path id="kity_path_99" fill="none" stroke="rgb(115, 161, 191)" stroke-width="1" d="M871.5,1457.5C886.5,1457.5,886.5,1405.5,901.5,1405.5L979.5,1405.5"></path><path id="kity_path_101" fill="none" stroke="rgb(115, 161, 191)" stroke-width="1" d="M871.5,1457.5C886.5,1457.5,886.5,1457.5,901.5,1457.5L955.5,1457.5"></path><path id="kity_path_103" fill="none" stroke="rgb(115, 161, 191)" stroke-width="1" d="M871.5,1457.5C886.5,1457.5,886.5,1509.5,901.5,1509.5L955.5,1509.5"></path><path id="kity_path_105" fill="none" stroke="rgb(115, 161, 191)" stroke-width="1" d="M871.5,1457.5C886.5,1457.5,886.5,1561.5,901.5,1561.5L979.5,1561.5"></path><path id="kity_path_107" fill="none" stroke="rgb(115, 161, 191)" stroke-width="1" d="M871.5,1457.5C886.5,1457.5,886.5,1613.5,901.5,1613.5L955.5,1613.5"></path><path id="kity_path_109" fill="none" stroke="rgb(115, 161, 191)" stroke-width="1" d="M703.5,1443.5C726,1443.5,726,1769.5,748.5,1769.5L802.5,1769.5"></path><path id="kity_path_111" fill="none" stroke="rgb(115, 161, 191)" stroke-width="1" d="M802.5,1769.5C817.5,1769.5,817.5,1717.5,832.5,1717.5L910.5,1717.5"></path><path id="kity_path_113" fill="none" stroke="rgb(115, 161, 191)" stroke-width="1" d="M802.5,1769.5C817.5,1769.5,817.5,1769.5,832.5,1769.5L886.5,1769.5"></path><path id="kity_path_115" fill="none" stroke="rgb(115, 161, 191)" stroke-width="1" d="M802.5,1769.5C817.5,1769.5,817.5,1821.5,832.5,1821.5L898.5,1821.5"></path><path id="kity_path_117" fill="none" stroke="rgb(115, 161, 191)" stroke-width="1" d="M437.5,978.5A175,45,0,0,0,262.5,933.5"></path><path id="kity_path_119" fill="none" stroke="rgb(115, 161, 191)" stroke-width="1" d="M192.5,933.5C175.5,933.5,175.5,865.5,158.5,865.5L104.5,865.5"></path><path id="kity_path_121" fill="none" stroke="rgb(115, 161, 191)" stroke-width="1" d="M104.5,865.5C89.5,865.5,89.5,839.5,74.5,839.5L20.5,839.5"></path><path id="kity_path_123" fill="none" stroke="rgb(115, 161, 191)" stroke-width="1" d="M104.5,865.5C89.5,865.5,89.5,891.5,74.5,891.5L20.5,891.5"></path><path id="kity_path_125" fill="none" stroke="rgb(115, 161, 191)" stroke-width="1" d="M437.5,978.5A175,45,0,0,1,262.5,1023.5"></path></g><g id="minder_node1"><path id="node_outline1" fill="rgb(115, 161, 191)" stroke="rgb(57, 80, 96)" d="M385.5,958.5h104a5,5,0,0,1,5,5v30a5,5,0,0,1,-5,5h-104a5,5,0,0,1,-5,-5v-30a5,5,0,0,1,5,-5z" stroke-width="3"></path><g id="node_text1" fill="white"><text id="kity_text_22" text-rendering="inherit" font-size="16" dy=".8em" y="970.5" x="404.5">一分App</text></g></g><g id="kity_g_12"><path id="kity_path_13" fill="none" stroke="none" d="M404.5,978.5h0v0h0z"></path></g><g id="kity_g_14"><path id="kity_path_15" fill="none" stroke="none" d="M404.5,978.5h0v0h0z"></path><path id="kity_path_16" fill="none" stroke="none"></path></g><g id="minder_node2"><g id="node_expander22" style="cursor: pointer;"><path id="kity_path_334" fill="white" stroke="gray" d="M613.5,512.5A6,6,0,1,1,601.5,512.5A6,6,0,1,1,613.5,512.5"></path><path id="kity_path_335" fill="none" stroke="gray" d="M603,512.5L612,512.5"></path></g><path id="node_outline23" fill="rgb(238, 243, 246)" stroke="rgb(115, 161, 191)" d="M617.5,499.5h62a3,3,0,0,1,3,3v20a3,3,0,0,1,-3,3h-62a3,3,0,0,1,-3,-3v-20a3,3,0,0,1,3,-3z" stroke-width="1"></path><g id="node_text23" fill="black"><text id="kity_text_169" text-rendering="inherit" font-size="14" dy=".8em" y="505.5" x="634.5">成片</text></g></g><g id="minder_node3"><g id="node_expander7" style="cursor: pointer;"><path id="kity_path_289" fill="white" stroke="gray" d="M722.5,161.5A6,6,0,1,1,710.5,161.5A6,6,0,1,1,722.5,161.5"></path><path id="kity_path_290" fill="none" stroke="gray" d="M712,161.5L721,161.5"></path></g><path id="node_outline8" fill="none" stroke="none" d="M727.5,150.5h58a5,5,0,0,1,5,5v12a5,5,0,0,1,-5,5h-58a5,5,0,0,1,-5,-5v-12a5,5,0,0,1,5,-5z"></path><g id="node_text8" fill="black"><text id="kity_text_139" text-rendering="inherit" font-size="12" dy=".8em" y="155.5" x="732.5">查看属性</text></g></g><g id="minder_node4"><g id="node_expander1" display="none" style="cursor: pointer;"><path id="kity_path_271" fill="white" stroke="gray" d="M846.5,31.5A6,6,0,1,1,834.5,31.5A6,6,0,1,1,846.5,31.5"></path><path id="kity_path_272" fill="none" stroke="gray"></path></g><path id="node_outline2" fill="none" stroke="none" d="M835.5,20.5h34a5,5,0,0,1,5,5v12a5,5,0,0,1,-5,5h-34a5,5,0,0,1,-5,-5v-12a5,5,0,0,1,5,-5z"></path><g id="node_text2" fill="black"><text id="kity_text_127" text-rendering="inherit" font-size="12" dy=".8em" y="25.5" x="840.5">标题</text></g></g><g id="minder_node5"><g id="node_expander2" display="none" style="cursor: pointer;"><path id="kity_path_274" fill="white" stroke="gray" d="M846.5,83.5A6,6,0,1,1,834.5,83.5A6,6,0,1,1,846.5,83.5"></path><path id="kity_path_275" fill="none" stroke="gray"></path></g><path id="node_outline3" fill="none" stroke="none" d="M835.5,72.5h34a5,5,0,0,1,5,5v12a5,5,0,0,1,-5,5h-34a5,5,0,0,1,-5,-5v-12a5,5,0,0,1,5,-5z"></path><g id="node_text3" fill="black"><text id="kity_text_129" text-rendering="inherit" font-size="12" dy=".8em" y="77.5" x="840.5">描述</text></g></g><g id="minder_node6"><g id="node_expander3" display="none" style="cursor: pointer;"><path id="kity_path_277" fill="white" stroke="gray" d="M846.5,135.5A6,6,0,1,1,834.5,135.5A6,6,0,1,1,846.5,135.5"></path><path id="kity_path_278" fill="none" stroke="gray"></path></g><path id="node_outline4" fill="none" stroke="none" d="M835.5,124.5h34a5,5,0,0,1,5,5v12a5,5,0,0,1,-5,5h-34a5,5,0,0,1,-5,-5v-12a5,5,0,0,1,5,-5z"></path><g id="node_text4" fill="black"><text id="kity_text_131" text-rendering="inherit" font-size="12" dy=".8em" y="129.5" x="840.5">标签</text></g></g><g id="minder_node7"><g id="node_expander4" display="none" style="cursor: pointer;"><path id="kity_path_280" fill="white" stroke="gray" d="M846.5,187.5A6,6,0,1,1,834.5,187.5A6,6,0,1,1,846.5,187.5"></path><path id="kity_path_281" fill="none" stroke="gray"></path></g><path id="node_outline5" fill="none" stroke="none" d="M835.5,176.5h34a5,5,0,0,1,5,5v12a5,5,0,0,1,-5,5h-34a5,5,0,0,1,-5,-5v-12a5,5,0,0,1,5,-5z"></path><g id="node_text5" fill="black"><text id="kity_text_133" text-rendering="inherit" font-size="12" dy=".8em" y="181.5" x="840.5">定位</text></g></g><g id="minder_node8"><g id="node_expander5" display="none" style="cursor: pointer;"><path id="kity_path_283" fill="white" stroke="gray" d="M846.5,239.5A6,6,0,1,1,834.5,239.5A6,6,0,1,1,846.5,239.5"></path><path id="kity_path_284" fill="none" stroke="gray"></path></g><path id="node_outline6" fill="none" stroke="none" d="M835.5,228.5h34a5,5,0,0,1,5,5v12a5,5,0,0,1,-5,5h-34a5,5,0,0,1,-5,-5v-12a5,5,0,0,1,5,-5z"></path><g id="node_text6" fill="black"><text id="kity_text_135" text-rendering="inherit" font-size="12" dy=".8em" y="233.5" x="840.5">天气</text></g></g><g id="minder_node9"><g id="node_expander6" display="none" style="cursor: pointer;"><path id="kity_path_286" fill="white" stroke="gray" d="M846.5,291.5A6,6,0,1,1,834.5,291.5A6,6,0,1,1,846.5,291.5"></path><path id="kity_path_287" fill="none" stroke="gray"></path></g><path id="node_outline7" fill="none" stroke="none" d="M835.5,280.5h106a5,5,0,0,1,5,5v12a5,5,0,0,1,-5,5h-106a5,5,0,0,1,-5,-5v-12a5,5,0,0,1,5,-5z"></path><g id="node_text7" fill="black"><text id="kity_text_137" text-rendering="inherit" font-size="12" dy=".8em" y="285.5" x="840.5">视频网站分享链接</text></g></g><g id="minder_node10"><g id="node_expander8" display="none" style="cursor: pointer;"><path id="kity_path_292" fill="white" stroke="gray" d="M738.5,343.5A6,6,0,1,1,726.5,343.5A6,6,0,1,1,738.5,343.5"></path><path id="kity_path_293" fill="none" stroke="gray"></path></g><path id="node_outline9" fill="none" stroke="none" d="M727.5,332.5h34a5,5,0,0,1,5,5v12a5,5,0,0,1,-5,5h-34a5,5,0,0,1,-5,-5v-12a5,5,0,0,1,5,-5z"></path><g id="node_text9" fill="black"><text id="kity_text_141" text-rendering="inherit" font-size="12" dy=".8em" y="337.5" x="732.5">删除</text></g></g><g id="minder_node11"><g id="node_expander11" style="cursor: pointer;"><path id="kity_path_301" fill="white" stroke="gray" d="M722.5,421.5A6,6,0,1,1,710.5,421.5A6,6,0,1,1,722.5,421.5"></path><path id="kity_path_302" fill="none" stroke="gray" d="M712,421.5L721,421.5"></path></g><path id="node_outline12" fill="none" stroke="none" d="M727.5,410.5h34a5,5,0,0,1,5,5v12a5,5,0,0,1,-5,5h-34a5,5,0,0,1,-5,-5v-12a5,5,0,0,1,5,-5z"></path><g id="node_text12" fill="black"><text id="kity_text_147" text-rendering="inherit" font-size="12" dy=".8em" y="415.5" x="732.5">上传</text></g></g><g id="minder_node12"><g id="node_expander9" display="none" style="cursor: pointer;"><path id="kity_path_295" fill="white" stroke="gray" d="M822.5,395.5A6,6,0,1,1,810.5,395.5A6,6,0,1,1,822.5,395.5"></path><path id="kity_path_296" fill="none" stroke="gray"></path></g><path id="node_outline10" fill="none" stroke="none" d="M811.5,384.5h33a5,5,0,0,1,5,5v12a5,5,0,0,1,-5,5h-33a5,5,0,0,1,-5,-5v-12a5,5,0,0,1,5,-5z"></path><g id="node_text10" fill="black"><text id="kity_text_143" text-rendering="inherit" font-size="12" dy=".8em" y="389.5" x="816.5">WIFI</text></g></g><g id="minder_node13"><g id="node_expander10" display="none" style="cursor: pointer;"><path id="kity_path_298" fill="white" stroke="gray" d="M822.5,447.5A6,6,0,1,1,810.5,447.5A6,6,0,1,1,822.5,447.5"></path><path id="kity_path_299" fill="none" stroke="gray"></path></g><path id="node_outline11" fill="none" stroke="none" d="M811.5,436.5h27a5,5,0,0,1,5,5v12a5,5,0,0,1,-5,5h-27a5,5,0,0,1,-5,-5v-12a5,5,0,0,1,5,-5z"></path><g id="node_text11" fill="black"><text id="kity_text_145" text-rendering="inherit" font-size="12" dy=".8em" y="441.5" x="816.5">4G</text></g></g><g id="minder_node14"><g id="node_expander12" display="none" style="cursor: pointer;"><path id="kity_path_304" fill="white" stroke="gray" d="M738.5,499.5A6,6,0,1,1,726.5,499.5A6,6,0,1,1,738.5,499.5"></path><path id="kity_path_305" fill="none" stroke="gray"></path></g><path id="node_outline13" fill="none" stroke="none" d="M727.5,488.5h34a5,5,0,0,1,5,5v12a5,5,0,0,1,-5,5h-34a5,5,0,0,1,-5,-5v-12a5,5,0,0,1,5,-5z"></path><g id="node_text13" fill="black"><text id="kity_text_149" text-rendering="inherit" font-size="12" dy=".8em" y="493.5" x="732.5">分享</text></g></g><g id="minder_node15"><g id="node_expander15" style="cursor: pointer;"><path id="kity_path_313" fill="white" stroke="gray" d="M722.5,577.5A6,6,0,1,1,710.5,577.5A6,6,0,1,1,722.5,577.5"></path><path id="kity_path_314" fill="none" stroke="gray" d="M712,577.5L721,577.5"></path></g><path id="node_outline16" fill="none" stroke="none" d="M727.5,566.5h34a5,5,0,0,1,5,5v12a5,5,0,0,1,-5,5h-34a5,5,0,0,1,-5,-5v-12a5,5,0,0,1,5,-5z"></path><g id="node_text16" fill="black"><text id="kity_text_155" text-rendering="inherit" font-size="12" dy=".8em" y="571.5" x="732.5">导出</text></g></g><g id="minder_node16"><g id="node_expander13" display="none" style="cursor: pointer;"><path id="kity_path_307" fill="white" stroke="gray" d="M822.5,551.5A6,6,0,1,1,810.5,551.5A6,6,0,1,1,822.5,551.5"></path><path id="kity_path_308" fill="none" stroke="gray"></path></g><path id="node_outline14" fill="none" stroke="none" d="M811.5,540.5h34a5,5,0,0,1,5,5v12a5,5,0,0,1,-5,5h-34a5,5,0,0,1,-5,-5v-12a5,5,0,0,1,5,-5z"></path><g id="node_text14" fill="black"><text id="kity_text_151" text-rendering="inherit" font-size="12" dy=".8em" y="545.5" x="816.5">整片</text></g></g><g id="minder_node17"><g id="node_expander14" display="none" style="cursor: pointer;"><path id="kity_path_310" fill="white" stroke="gray" d="M822.5,603.5A6,6,0,1,1,810.5,603.5A6,6,0,1,1,822.5,603.5"></path><path id="kity_path_311" fill="none" stroke="gray"></path></g><path id="node_outline15" fill="none" stroke="none" d="M811.5,592.5h34a5,5,0,0,1,5,5v12a5,5,0,0,1,-5,5h-34a5,5,0,0,1,-5,-5v-12a5,5,0,0,1,5,-5z"></path><g id="node_text15" fill="black"><text id="kity_text_153" text-rendering="inherit" font-size="12" dy=".8em" y="597.5" x="816.5">预告</text></g></g><g id="minder_node18"><g id="node_expander16" display="none" style="cursor: pointer;"><path id="kity_path_316" fill="white" stroke="gray" d="M709.5,114.5A6,6,0,1,1,697.5,114.5A6,6,0,1,1,709.5,114.5"></path><path id="kity_path_317" fill="none" stroke="gray"></path></g><path id="node_outline17" fill="none" stroke="none" d="M698.5,103.5h34a5,5,0,0,1,5,5v12a5,5,0,0,1,-5,5h-34a5,5,0,0,1,-5,-5v-12a5,5,0,0,1,5,-5z"></path><g id="node_text17" fill="black"><text id="kity_text_157" text-rendering="inherit" font-size="12" dy=".8em" y="108.5" x="703.5">浏览</text></g></g><g id="minder_node19"><g id="node_expander20" style="cursor: pointer;"><path id="kity_path_328" fill="white" stroke="gray" d="M723.5,742.5A6,6,0,1,1,711.5,742.5A6,6,0,1,1,723.5,742.5"></path><path id="kity_path_329" fill="none" stroke="gray" d="M713,742.5L722,742.5"></path></g><path id="node_outline21" fill="none" stroke="none" d="M728.5,731.5h58a5,5,0,0,1,5,5v12a5,5,0,0,1,-5,5h-58a5,5,0,0,1,-5,-5v-12a5,5,0,0,1,5,-5z"></path><g id="node_text21" fill="black"><text id="kity_text_165" text-rendering="inherit" font-size="12" dy=".8em" y="736.5" x="733.5">编辑属性</text></g></g><g id="minder_node20"><g id="node_expander17" display="none" style="cursor: pointer;"><path id="kity_path_319" fill="white" stroke="gray" d="M847.5,690.5A6,6,0,1,1,835.5,690.5A6,6,0,1,1,847.5,690.5"></path><path id="kity_path_320" fill="none" stroke="gray"></path></g><path id="node_outline18" fill="none" stroke="none" d="M836.5,679.5h34a5,5,0,0,1,5,5v12a5,5,0,0,1,-5,5h-34a5,5,0,0,1,-5,-5v-12a5,5,0,0,1,5,-5z"></path><g id="node_text18" fill="black"><text id="kity_text_159" text-rendering="inherit" font-size="12" dy=".8em" y="684.5" x="841.5">标题</text></g></g><g id="minder_node21"><g id="node_expander18" display="none" style="cursor: pointer;"><path id="kity_path_322" fill="white" stroke="gray" d="M847.5,742.5A6,6,0,1,1,835.5,742.5A6,6,0,1,1,847.5,742.5"></path><path id="kity_path_323" fill="none" stroke="gray"></path></g><path id="node_outline19" fill="none" stroke="none" d="M836.5,731.5h34a5,5,0,0,1,5,5v12a5,5,0,0,1,-5,5h-34a5,5,0,0,1,-5,-5v-12a5,5,0,0,1,5,-5z"></path><g id="node_text19" fill="black"><text id="kity_text_161" text-rendering="inherit" font-size="12" dy=".8em" y="736.5" x="841.5">描述</text></g></g><g id="minder_node22"><g id="node_expander19" display="none" style="cursor: pointer;"><path id="kity_path_325" fill="white" stroke="gray" d="M847.5,794.5A6,6,0,1,1,835.5,794.5A6,6,0,1,1,847.5,794.5"></path><path id="kity_path_326" fill="none" stroke="gray"></path></g><path id="node_outline20" fill="none" stroke="none" d="M836.5,783.5h34a5,5,0,0,1,5,5v12a5,5,0,0,1,-5,5h-34a5,5,0,0,1,-5,-5v-12a5,5,0,0,1,5,-5z"></path><g id="node_text20" fill="black"><text id="kity_text_163" text-rendering="inherit" font-size="12" dy=".8em" y="788.5" x="841.5">标签</text></g></g><g id="minder_node23"><g id="node_expander21" display="none" style="cursor: pointer;"><path id="kity_path_331" fill="white" stroke="gray" d="M738.5,863.5A6,6,0,1,1,726.5,863.5A6,6,0,1,1,738.5,863.5"></path><path id="kity_path_332" fill="none" stroke="gray"></path></g><path id="node_outline22" fill="none" stroke="none" d="M727.5,852.5h34a5,5,0,0,1,5,5v12a5,5,0,0,1,-5,5h-34a5,5,0,0,1,-5,-5v-12a5,5,0,0,1,5,-5z"></path><g id="node_text22" fill="black"><text id="kity_text_167" text-rendering="inherit" font-size="12" dy=".8em" y="857.5" x="732.5">搜索</text></g></g><g id="minder_node24"><g id="node_expander43" style="cursor: pointer;"><path id="kity_path_397" fill="white" stroke="gray" d="M634.5,1443.5A6,6,0,1,1,622.5,1443.5A6,6,0,1,1,634.5,1443.5"></path><path id="kity_path_398" fill="none" stroke="gray" d="M624,1443.5L633,1443.5"></path></g><path id="node_outline44" fill="rgb(238, 243, 246)" stroke="rgb(115, 161, 191)" d="M638.5,1430.5h62a3,3,0,0,1,3,3v20a3,3,0,0,1,-3,3h-62a3,3,0,0,1,-3,-3v-20a3,3,0,0,1,3,-3z" stroke-width="1"></path><g id="node_text44" fill="black"><text id="kity_text_211" text-rendering="inherit" font-size="14" dy=".8em" y="1436.5" x="655.5">拍摄</text></g></g><g id="minder_node25"><g id="node_expander38" style="cursor: pointer;"><path id="kity_path_382" fill="white" stroke="gray" d="M743.5,1183.5A6,6,0,1,1,731.5,1183.5A6,6,0,1,1,743.5,1183.5"></path><path id="kity_path_383" fill="none" stroke="gray" d="M733,1183.5L742,1183.5"></path></g><path id="node_outline39" fill="none" stroke="none" d="M748.5,1172.5h34a5,5,0,0,1,5,5v12a5,5,0,0,1,-5,5h-34a5,5,0,0,1,-5,-5v-12a5,5,0,0,1,5,-5z"></path><g id="node_text39" fill="black"><text id="kity_text_201" text-rendering="inherit" font-size="12" dy=".8em" y="1177.5" x="753.5">模板</text></g></g><g id="minder_node26"><g id="node_expander23" display="none" style="cursor: pointer;"><path id="kity_path_337" fill="white" stroke="gray" d="M843.5,923.5A6,6,0,1,1,831.5,923.5A6,6,0,1,1,843.5,923.5"></path><path id="kity_path_338" fill="none" stroke="gray"></path></g><path id="node_outline24" fill="none" stroke="none" d="M832.5,912.5h34a5,5,0,0,1,5,5v12a5,5,0,0,1,-5,5h-34a5,5,0,0,1,-5,-5v-12a5,5,0,0,1,5,-5z"></path><g id="node_text24" fill="black"><text id="kity_text_171" text-rendering="inherit" font-size="12" dy=".8em" y="917.5" x="837.5">片头</text></g></g><g id="minder_node27"><g id="node_expander24" display="none" style="cursor: pointer;"><path id="kity_path_340" fill="white" stroke="gray" d="M843.5,975.5A6,6,0,1,1,831.5,975.5A6,6,0,1,1,843.5,975.5"></path><path id="kity_path_341" fill="none" stroke="gray"></path></g><path id="node_outline25" fill="none" stroke="none" d="M832.5,964.5h34a5,5,0,0,1,5,5v12a5,5,0,0,1,-5,5h-34a5,5,0,0,1,-5,-5v-12a5,5,0,0,1,5,-5z"></path><g id="node_text25" fill="black"><text id="kity_text_173" text-rendering="inherit" font-size="12" dy=".8em" y="969.5" x="837.5">片尾</text></g></g><g id="minder_node28"><g id="node_expander25" display="none" style="cursor: pointer;"><path id="kity_path_343" fill="white" stroke="gray" d="M843.5,1027.5A6,6,0,1,1,831.5,1027.5A6,6,0,1,1,843.5,1027.5"></path><path id="kity_path_344" fill="none" stroke="gray"></path></g><path id="node_outline26" fill="none" stroke="none" d="M832.5,1016.5h34a5,5,0,0,1,5,5v12a5,5,0,0,1,-5,5h-34a5,5,0,0,1,-5,-5v-12a5,5,0,0,1,5,-5z"></path><g id="node_text26" fill="black"><text id="kity_text_175" text-rendering="inherit" font-size="12" dy=".8em" y="1021.5" x="837.5">转场</text></g></g><g id="minder_node29"><g id="node_expander26" display="none" style="cursor: pointer;"><path id="kity_path_346" fill="white" stroke="gray" d="M843.5,1079.5A6,6,0,1,1,831.5,1079.5A6,6,0,1,1,843.5,1079.5"></path><path id="kity_path_347" fill="none" stroke="gray"></path></g><path id="node_outline27" fill="none" stroke="none" d="M832.5,1068.5h34a5,5,0,0,1,5,5v12a5,5,0,0,1,-5,5h-34a5,5,0,0,1,-5,-5v-12a5,5,0,0,1,5,-5z"></path><g id="node_text27" fill="black"><text id="kity_text_177" text-rendering="inherit" font-size="12" dy=".8em" y="1073.5" x="837.5">字幕</text></g></g><g id="minder_node30"><g id="node_expander27" display="none" style="cursor: pointer;"><path id="kity_path_349" fill="white" stroke="gray" d="M843.5,1131.5A6,6,0,1,1,831.5,1131.5A6,6,0,1,1,843.5,1131.5"></path><path id="kity_path_350" fill="none" stroke="gray"></path></g><path id="node_outline28" fill="none" stroke="none" d="M832.5,1120.5h34a5,5,0,0,1,5,5v12a5,5,0,0,1,-5,5h-34a5,5,0,0,1,-5,-5v-12a5,5,0,0,1,5,-5z"></path><g id="node_text28" fill="black"><text id="kity_text_179" text-rendering="inherit" font-size="12" dy=".8em" y="1125.5" x="837.5">片段</text></g></g><g id="minder_node31"><g id="node_expander28" display="none" style="cursor: pointer;"><path id="kity_path_352" fill="white" stroke="gray" d="M843.5,1183.5A6,6,0,1,1,831.5,1183.5A6,6,0,1,1,843.5,1183.5"></path><path id="kity_path_353" fill="none" stroke="gray"></path></g><path id="node_outline29" fill="none" stroke="none" d="M832.5,1172.5h34a5,5,0,0,1,5,5v12a5,5,0,0,1,-5,5h-34a5,5,0,0,1,-5,-5v-12a5,5,0,0,1,5,-5z"></path><g id="node_text29" fill="black"><text id="kity_text_181" text-rendering="inherit" font-size="12" dy=".8em" y="1177.5" x="837.5">音乐</text></g></g><g id="minder_node32"><g id="node_expander29" display="none" style="cursor: pointer;"><path id="kity_path_355" fill="white" stroke="gray" d="M843.5,1235.5A6,6,0,1,1,831.5,1235.5A6,6,0,1,1,843.5,1235.5"></path><path id="kity_path_356" fill="none" stroke="gray"></path></g><path id="node_outline30" fill="none" stroke="none" d="M832.5,1224.5h34a5,5,0,0,1,5,5v12a5,5,0,0,1,-5,5h-34a5,5,0,0,1,-5,-5v-12a5,5,0,0,1,5,-5z"></path><g id="node_text30" fill="black"><text id="kity_text_183" text-rendering="inherit" font-size="12" dy=".8em" y="1229.5" x="837.5">特效</text></g></g><g id="minder_node33"><g id="node_expander37" style="cursor: pointer;"><path id="kity_path_379" fill="white" stroke="gray" d="M827.5,1443.5A6,6,0,1,1,815.5,1443.5A6,6,0,1,1,827.5,1443.5"></path><path id="kity_path_380" fill="none" stroke="gray" d="M817,1443.5L826,1443.5"></path></g><path id="node_outline38" fill="none" stroke="none" d="M832.5,1432.5h34a5,5,0,0,1,5,5v12a5,5,0,0,1,-5,5h-34a5,5,0,0,1,-5,-5v-12a5,5,0,0,1,5,-5z"></path><g id="node_text38" fill="black"><text id="kity_text_199" text-rendering="inherit" font-size="12" dy=".8em" y="1437.5" x="837.5">属性</text></g></g><g id="minder_node34"><g id="node_expander30" display="none" style="cursor: pointer;"><path id="kity_path_358" fill="white" stroke="gray" d="M927.5,1287.5A6,6,0,1,1,915.5,1287.5A6,6,0,1,1,927.5,1287.5"></path><path id="kity_path_359" fill="none" stroke="gray"></path></g><path id="node_outline31" fill="none" stroke="none" d="M916.5,1276.5h34a5,5,0,0,1,5,5v12a5,5,0,0,1,-5,5h-34a5,5,0,0,1,-5,-5v-12a5,5,0,0,1,5,-5z"></path><g id="node_text31" fill="black"><text id="kity_text_185" text-rendering="inherit" font-size="12" dy=".8em" y="1281.5" x="921.5">标题</text></g></g><g id="minder_node35"><g id="node_expander31" display="none" style="cursor: pointer;"><path id="kity_path_361" fill="white" stroke="gray" d="M927.5,1339.5A6,6,0,1,1,915.5,1339.5A6,6,0,1,1,927.5,1339.5"></path><path id="kity_path_362" fill="none" stroke="gray"></path></g><path id="node_outline32" fill="none" stroke="none" d="M916.5,1328.5h34a5,5,0,0,1,5,5v12a5,5,0,0,1,-5,5h-34a5,5,0,0,1,-5,-5v-12a5,5,0,0,1,5,-5z"></path><g id="node_text32" fill="black"><text id="kity_text_187" text-rendering="inherit" font-size="12" dy=".8em" y="1333.5" x="921.5">描述</text></g></g><g id="minder_node36"><g id="node_expander32" display="none" style="cursor: pointer;"><path id="kity_path_364" fill="white" stroke="gray" d="M927.5,1391.5A6,6,0,1,1,915.5,1391.5A6,6,0,1,1,927.5,1391.5"></path><path id="kity_path_365" fill="none" stroke="gray"></path></g><path id="node_outline33" fill="none" stroke="none" d="M916.5,1380.5h58a5,5,0,0,1,5,5v12a5,5,0,0,1,-5,5h-58a5,5,0,0,1,-5,-5v-12a5,5,0,0,1,5,-5z"></path><g id="node_text33" fill="black"><text id="kity_text_189" text-rendering="inherit" font-size="12" dy=".8em" y="1385.5" x="921.5">标签列表</text></g></g><g id="minder_node37"><g id="node_expander33" display="none" style="cursor: pointer;"><path id="kity_path_367" fill="white" stroke="gray" d="M927.5,1443.5A6,6,0,1,1,915.5,1443.5A6,6,0,1,1,927.5,1443.5"></path><path id="kity_path_368" fill="none" stroke="gray"></path></g><path id="node_outline34" fill="none" stroke="none" d="M916.5,1432.5h34a5,5,0,0,1,5,5v12a5,5,0,0,1,-5,5h-34a5,5,0,0,1,-5,-5v-12a5,5,0,0,1,5,-5z"></path><g id="node_text34" fill="black"><text id="kity_text_191" text-rendering="inherit" font-size="12" dy=".8em" y="1437.5" x="921.5">定位</text></g></g><g id="minder_node38"><g id="node_expander34" display="none" style="cursor: pointer;"><path id="kity_path_370" fill="white" stroke="gray" d="M927.5,1495.5A6,6,0,1,1,915.5,1495.5A6,6,0,1,1,927.5,1495.5"></path><path id="kity_path_371" fill="none" stroke="gray"></path></g><path id="node_outline35" fill="none" stroke="none" d="M916.5,1484.5h34a5,5,0,0,1,5,5v12a5,5,0,0,1,-5,5h-34a5,5,0,0,1,-5,-5v-12a5,5,0,0,1,5,-5z"></path><g id="node_text35" fill="black"><text id="kity_text_193" text-rendering="inherit" font-size="12" dy=".8em" y="1489.5" x="921.5">天气</text></g></g><g id="minder_node39"><g id="node_expander35" display="none" style="cursor: pointer;"><path id="kity_path_373" fill="white" stroke="gray" d="M927.5,1547.5A6,6,0,1,1,915.5,1547.5A6,6,0,1,1,927.5,1547.5"></path><path id="kity_path_374" fill="none" stroke="gray"></path></g><path id="node_outline36" fill="none" stroke="none" d="M916.5,1536.5h58a5,5,0,0,1,5,5v12a5,5,0,0,1,-5,5h-58a5,5,0,0,1,-5,-5v-12a5,5,0,0,1,5,-5z"></path><g id="node_text36" fill="black"><text id="kity_text_195" text-rendering="inherit" font-size="12" dy=".8em" y="1541.5" x="921.5">日期时间</text></g></g><g id="minder_node40"><g id="node_expander36" display="none" style="cursor: pointer;"><path id="kity_path_376" fill="white" stroke="gray" d="M927.5,1599.5A6,6,0,1,1,915.5,1599.5A6,6,0,1,1,927.5,1599.5"></path><path id="kity_path_377" fill="none" stroke="gray"></path></g><path id="node_outline37" fill="none" stroke="none" d="M916.5,1588.5h34a5,5,0,0,1,5,5v12a5,5,0,0,1,-5,5h-34a5,5,0,0,1,-5,-5v-12a5,5,0,0,1,5,-5z"></path><g id="node_text37" fill="black"><text id="kity_text_197" text-rendering="inherit" font-size="12" dy=".8em" y="1593.5" x="921.5">时长</text></g></g><g id="minder_node41"><g id="node_expander42" style="cursor: pointer;"><path id="kity_path_394" fill="white" stroke="gray" d="M758.5,1755.5A6,6,0,1,1,746.5,1755.5A6,6,0,1,1,758.5,1755.5"></path><path id="kity_path_395" fill="none" stroke="gray" d="M748,1755.5L757,1755.5"></path></g><path id="node_outline43" fill="none" stroke="none" d="M763.5,1744.5h34a5,5,0,0,1,5,5v12a5,5,0,0,1,-5,5h-34a5,5,0,0,1,-5,-5v-12a5,5,0,0,1,5,-5z"></path><g id="node_text43" fill="black"><text id="kity_text_209" text-rendering="inherit" font-size="12" dy=".8em" y="1749.5" x="768.5">草稿</text></g></g><g id="minder_node42"><g id="node_expander39" display="none" style="cursor: pointer;"><path id="kity_path_385" fill="white" stroke="gray" d="M858.5,1703.5A6,6,0,1,1,846.5,1703.5A6,6,0,1,1,858.5,1703.5"></path><path id="kity_path_386" fill="none" stroke="gray"></path></g><path id="node_outline40" fill="none" stroke="none" d="M847.5,1692.5h58a5,5,0,0,1,5,5v12a5,5,0,0,1,-5,5h-58a5,5,0,0,1,-5,-5v-12a5,5,0,0,1,5,-5z"></path><g id="node_text40" fill="black"><text id="kity_text_203" text-rendering="inherit" font-size="12" dy=".8em" y="1697.5" x="852.5">自动保存</text></g></g><g id="minder_node43"><g id="node_expander40" display="none" style="cursor: pointer;"><path id="kity_path_388" fill="white" stroke="gray" d="M858.5,1755.5A6,6,0,1,1,846.5,1755.5A6,6,0,1,1,858.5,1755.5"></path><path id="kity_path_389" fill="none" stroke="gray"></path></g><path id="node_outline41" fill="none" stroke="none" d="M847.5,1744.5h34a5,5,0,0,1,5,5v12a5,5,0,0,1,-5,5h-34a5,5,0,0,1,-5,-5v-12a5,5,0,0,1,5,-5z"></path><g id="node_text41" fill="black"><text id="kity_text_205" text-rendering="inherit" font-size="12" dy=".8em" y="1749.5" x="852.5">删除</text></g></g><g id="minder_node44"><g id="node_expander41" display="none" style="cursor: pointer;"><path id="kity_path_391" fill="white" stroke="gray" d="M858.5,1807.5A6,6,0,1,1,846.5,1807.5A6,6,0,1,1,858.5,1807.5"></path><path id="kity_path_392" fill="none" stroke="gray"></path></g><path id="node_outline42" fill="none" stroke="none" d="M847.5,1796.5h46a5,5,0,0,1,5,5v12a5,5,0,0,1,-5,5h-46a5,5,0,0,1,-5,-5v-12a5,5,0,0,1,5,-5z"></path><g id="node_text42" fill="black"><text id="kity_text_207" text-rendering="inherit" font-size="12" dy=".8em" y="1801.5" x="852.5">草稿箱</text></g></g><g id="minder_node45"><g id="node_expander47" style="cursor: pointer;"><path id="kity_path_409" fill="white" stroke="gray" d="M273.5,933.5A6,6,0,1,1,261.5,933.5A6,6,0,1,1,273.5,933.5"></path><path id="kity_path_410" fill="none" stroke="gray" d="M263,933.5L272,933.5"></path></g><path id="node_outline48" fill="rgb(238, 243, 246)" stroke="rgb(115, 161, 191)" d="M195.5,920.5h62a3,3,0,0,1,3,3v20a3,3,0,0,1,-3,3h-62a3,3,0,0,1,-3,-3v-20a3,3,0,0,1,3,-3z" stroke-width="1"></path><g id="node_text48" fill="black"><text id="kity_text_219" text-rendering="inherit" font-size="14" dy=".8em" y="926.5" x="212.5">设置</text></g></g><g id="minder_node46"><g id="node_expander46" style="cursor: pointer;"><path id="kity_path_406" fill="white" stroke="gray" d="M160.5,851.5A6,6,0,1,1,148.5,851.5A6,6,0,1,1,160.5,851.5"></path><path id="kity_path_407" fill="none" stroke="gray" d="M150,851.5L159,851.5"></path></g><path id="node_outline47" fill="none" stroke="none" d="M109.5,840.5h34a5,5,0,0,1,5,5v12a5,5,0,0,1,-5,5h-34a5,5,0,0,1,-5,-5v-12a5,5,0,0,1,5,-5z"></path><g id="node_text47" fill="black"><text id="kity_text_217" text-rendering="inherit" font-size="12" dy=".8em" y="845.5" x="114.5">帐号</text></g></g><g id="minder_node47"><g id="node_expander44" display="none" style="cursor: pointer;"><path id="kity_path_400" fill="white" stroke="gray" d="M36.5,825.5A6,6,0,1,1,24.5,825.5A6,6,0,1,1,36.5,825.5"></path><path id="kity_path_401" fill="none" stroke="gray"></path></g><path id="node_outline45" fill="none" stroke="none" d="M25.5,814.5h34a5,5,0,0,1,5,5v12a5,5,0,0,1,-5,5h-34a5,5,0,0,1,-5,-5v-12a5,5,0,0,1,5,-5z"></path><g id="node_text45" fill="black"><text id="kity_text_213" text-rendering="inherit" font-size="12" dy=".8em" y="819.5" x="30.5">绑定</text></g></g><g id="minder_node48"><g id="node_expander45" display="none" style="cursor: pointer;"><path id="kity_path_403" fill="white" stroke="gray" d="M36.5,877.5A6,6,0,1,1,24.5,877.5A6,6,0,1,1,36.5,877.5"></path><path id="kity_path_404" fill="none" stroke="gray"></path></g><path id="node_outline46" fill="none" stroke="none" d="M25.5,866.5h34a5,5,0,0,1,5,5v12a5,5,0,0,1,-5,5h-34a5,5,0,0,1,-5,-5v-12a5,5,0,0,1,5,-5z"></path><g id="node_text46" fill="black"><text id="kity_text_215" text-rendering="inherit" font-size="12" dy=".8em" y="871.5" x="30.5">解绑</text></g></g><g id="minder_node49"><g id="node_expander48" display="none" style="cursor: pointer;"><path id="kity_path_412" fill="white" stroke="gray" d="M218.5,1023.5A6,6,0,1,1,206.5,1023.5A6,6,0,1,1,218.5,1023.5"></path><path id="kity_path_413" fill="none" stroke="gray"></path></g><path id="node_outline49" fill="rgb(238, 243, 246)" stroke="rgb(115, 161, 191)" d="M195.5,1010.5h62a3,3,0,0,1,3,3v20a3,3,0,0,1,-3,3h-62a3,3,0,0,1,-3,-3v-20a3,3,0,0,1,3,-3z" stroke-width="1"></path><g id="node_text49" fill="black"><text id="kity_text_221" text-rendering="inherit" font-size="14" dy=".8em" y="1016.5" x="212.5">关于</text></g></g></g></g></svg>